<?xml version="1.0" encoding="utf-8"?>
<!-- Generator: Adobe Illustrator 16.0.0, SVG Export Plug-In . SVG Version: 6.00 Build 0)  -->
<!DOCTYPE svg PUBLIC "-//W3C//DTD SVG 1.1//EN" "http://www.w3.org/Graphics/SVG/1.1/DTD/svg11.dtd">
<svg version="1.1" id="Camada_1" xmlns="http://www.w3.org/2000/svg" xmlns:xlink="http://www.w3.org/1999/xlink" x="0px" y="0px"
	 width="1682.5px" height="255px" viewBox="0 0 1682.5 255" enable-background="new 0 0 1682.5 255" xml:space="preserve">
<g>
	<path fill="#FFFFFF" d="M422.762,80.59c7.2,3.802,12.799,9.401,16.8,16.801c3.999,7.401,6,16.35,6,26.85v57.45h-24.3v-25.2h-48
		v25.2h-24v-57.45c0-10.5,2-19.448,6-26.85c3.999-7.399,9.601-12.999,16.8-16.801c7.2-3.799,15.649-5.699,25.351-5.699
		C407.111,74.891,415.563,76.791,422.762,80.59z M421.262,136.99v-15c0-8.7-2.15-15.274-6.45-19.725
		c-4.301-4.449-10.15-6.676-17.55-6.676c-7.5,0-13.375,2.227-17.625,6.676c-4.251,4.45-6.375,11.024-6.375,19.725v15H421.262z"/>
	<path fill="#FFFFFF" d="M498.621,108.05c4.432-1.865,9.542-2.8,15.33-2.8v20.16c-2.428-0.186-4.061-0.28-4.9-0.28
		c-6.254,0-11.153,1.75-14.7,5.25c-3.548,3.5-5.319,8.75-5.319,15.75v35.562h-21.84v-75.32h20.859v9.94
		C490.663,112.67,494.188,109.918,498.621,108.05z"/>
	<path fill="#FFFFFF" d="M558.401,108.05c4.432-1.865,9.542-2.8,15.33-2.8v20.16c-2.429-0.186-4.061-0.28-4.9-0.28
		c-6.254,0-11.154,1.75-14.7,5.25c-3.548,3.5-5.32,8.75-5.32,15.75v35.562h-21.84v-75.32h20.86v9.94
		C550.443,112.67,553.967,109.918,558.401,108.05z"/>
	<path fill="#FFFFFF" d="M634.424,163.561c3.031-1.166,5.855-3.011,8.469-5.529l11.621,12.6
		c-7.095,8.12-17.455,12.182-31.081,12.182c-8.493,0-16.008-1.656-22.54-4.971c-6.533-3.313-11.573-7.91-15.119-13.791
		c-3.549-5.88-5.32-12.552-5.32-20.02c0-7.372,1.75-14.021,5.25-19.95c3.5-5.926,8.306-10.546,14.42-13.86
		c6.112-3.312,12.996-4.97,20.65-4.97c7.186,0,13.72,1.519,19.6,4.55c5.88,3.034,10.57,7.42,14.07,13.16
		c3.5,5.74,5.25,12.53,5.25,20.37l-55.721,10.78c1.586,3.734,4.082,6.533,7.49,8.398c3.406,1.868,7.582,2.801,12.53,2.801
		C627.913,165.311,631.389,164.729,634.424,163.561z M607.333,127.09c-3.454,3.549-5.274,8.448-5.46,14.7l36.68-7.14
		c-1.026-3.92-3.128-7.046-6.3-9.38c-3.174-2.332-7-3.5-11.479-3.5C615.265,121.771,610.785,123.544,607.333,127.09z"/>
	<path fill="#FFFFFF" d="M793.322,113.58c5.551,5.554,8.33,13.884,8.33,24.99v43.119h-21.84v-39.76
		c0-5.973-1.238-10.431-3.712-13.369c-2.473-2.94-5.997-4.411-10.569-4.411c-5.133,0-9.193,1.658-12.181,4.97
		c-2.987,3.313-4.479,8.237-4.479,14.771v37.801h-21.84v-39.76c0-11.854-4.76-17.781-14.279-17.781
		c-5.039,0-9.055,1.658-12.039,4.97c-2.988,3.314-4.479,8.238-4.479,14.771v37.799h-21.841v-75.319h20.859v8.68
		c2.801-3.172,6.23-5.6,10.291-7.279c4.059-1.681,8.516-2.521,13.369-2.521c5.32,0,10.125,1.05,14.42,3.15
		c4.291,2.1,7.746,5.158,10.359,9.17c3.08-3.92,6.977-6.952,11.69-9.101c4.711-2.146,9.869-3.22,15.469-3.22
		C780.277,105.25,787.768,108.028,793.322,113.58z"/>
	<path fill="#FFFFFF" d="M898.531,106.37v75.319h-20.859v-8.681c-5.414,6.535-13.254,9.802-23.521,9.802
		c-7.095,0-13.511-1.586-19.25-4.761c-5.738-3.172-10.244-7.7-13.511-13.581c-3.268-5.88-4.897-12.691-4.897-20.438
		c0-7.746,1.631-14.562,4.897-20.44c3.267-5.88,7.771-10.405,13.511-13.58c5.739-3.172,12.155-4.76,19.25-4.76
		c9.612,0,17.127,3.034,22.541,9.101v-7.98L898.531,106.37L898.531,106.37z M871.65,159.221c3.641-3.779,5.461-8.843,5.461-15.189
		c0-6.346-1.82-11.41-5.461-15.19c-3.64-3.779-8.213-5.67-13.72-5.67c-5.6,0-10.221,1.891-13.86,5.67
		c-3.64,3.78-5.459,8.845-5.459,15.19c0,6.348,1.819,11.41,5.459,15.189c3.641,3.779,8.262,5.67,13.86,5.67
		C863.438,164.891,868.012,163,871.65,159.221z"/>
	<path fill="#FFFFFF" d="M964.051,178.051c-2.147,1.588-4.785,2.777-7.91,3.569c-3.129,0.792-6.37,1.19-9.729,1.19
		c-9.055,0-16.008-2.287-20.859-6.86c-4.854-4.572-7.28-11.292-7.28-20.16V89.71h21.84v18.34h18.621v16.801h-18.621v30.659
		c0,3.176,0.793,5.624,2.381,7.352c1.586,1.728,3.871,2.59,6.859,2.59c3.358,0,6.346-0.932,8.961-2.801L964.051,178.051z"/>
	<path fill="#FFFFFF" d="M1022.357,163.561c3.03-1.166,5.854-3.011,8.471-5.529l11.619,12.6c-7.094,8.12-17.453,12.182-31.08,12.182
		c-8.494,0-16.008-1.656-22.539-4.971c-6.535-3.313-11.574-7.91-15.121-13.791c-3.547-5.88-5.318-12.552-5.318-20.02
		c0-7.372,1.75-14.021,5.25-19.95c3.5-5.926,8.306-10.546,14.42-13.86c6.111-3.312,12.994-4.97,20.648-4.97
		c7.188,0,13.721,1.519,19.602,4.55c5.88,3.034,10.568,7.42,14.068,13.16c3.5,5.74,5.25,12.53,5.25,20.37l-55.719,10.78
		c1.586,3.734,4.082,6.533,7.49,8.398c3.403,1.868,7.582,2.801,12.528,2.801C1015.848,165.311,1019.324,164.729,1022.357,163.561z
		 M995.268,127.09c-3.452,3.549-5.272,8.448-5.459,14.7l36.681-7.14c-1.029-3.92-3.129-7.046-6.302-9.38
		c-3.174-2.332-7-3.5-11.479-3.5C1003.199,121.771,998.719,123.544,995.268,127.09z"/>
	<path fill="#FFFFFF" d="M1104.541,176.516c-8.65-4.649-15.451-11.101-20.4-19.351c-4.948-8.25-7.426-17.573-7.426-27.976
		c0-10.398,2.478-19.726,7.426-27.976c4.949-8.25,11.75-14.699,20.4-19.35c8.648-4.65,18.375-6.975,29.174-6.975
		c9.1,0,17.326,1.601,24.676,4.8c7.351,3.201,13.523,7.8,18.525,13.8l-15.6,14.4c-7.103-8.199-15.9-12.301-26.4-12.301
		c-6.502,0-12.301,1.426-17.4,4.275c-5.099,2.849-9.073,6.825-11.926,11.925c-2.85,5.101-4.272,10.901-4.272,17.399
		c0,6.502,1.424,12.301,4.272,17.399c2.853,5.101,6.826,9.075,11.926,11.927c5.101,2.85,10.898,4.273,17.4,4.273
		c10.5,0,19.299-4.148,26.4-12.45l15.6,14.399c-5.002,6.102-11.201,10.752-18.6,13.951c-7.402,3.199-15.652,4.799-24.75,4.799
		C1122.863,183.49,1113.189,181.165,1104.541,176.516z"/>
	<path fill="#FFFFFF" d="M1267.334,106.37v75.319h-20.859v-8.681c-5.414,6.535-13.254,9.802-23.521,9.802
		c-7.094,0-13.51-1.586-19.25-4.761c-5.738-3.172-10.244-7.7-13.51-13.581c-3.269-5.88-4.898-12.691-4.898-20.438
		c0-7.746,1.631-14.562,4.898-20.44c3.266-5.88,7.771-10.405,13.51-13.58c5.74-3.172,12.156-4.76,19.25-4.76
		c9.613,0,17.127,3.034,22.541,9.101v-7.98L1267.334,106.37L1267.334,106.37z M1241.854,96.71l-12.18-10.64l-12.18,10.64h-15.961
		l18.479-20.16h19.32l18.479,20.16H1241.854z M1240.453,159.221c3.641-3.779,5.461-8.843,5.461-15.189
		c0-6.346-1.82-11.41-5.461-15.19c-3.639-3.779-8.213-5.67-13.719-5.67c-5.601,0-10.222,1.891-13.861,5.67
		c-3.639,3.78-5.459,8.845-5.459,15.19c0,6.348,1.82,11.41,5.459,15.189c3.641,3.779,8.262,5.67,13.861,5.67
		C1232.24,164.891,1236.814,163,1240.453,159.221z"/>
	<path fill="#FFFFFF" d="M1406.422,113.58c5.553,5.554,8.33,13.884,8.33,24.99v43.119h-21.84v-39.76
		c0-5.973-1.238-10.431-3.709-13.369c-2.475-2.94-5.998-4.411-10.57-4.411c-5.135,0-9.192,1.658-12.18,4.97
		c-2.988,3.313-4.48,8.237-4.48,14.771v37.801h-21.84v-39.76c0-11.854-4.76-17.781-14.279-17.781c-5.041,0-9.055,1.658-12.041,4.97
		c-2.987,3.314-4.479,8.238-4.479,14.771v37.799h-21.84v-75.319h20.86v8.68c2.8-3.172,6.229-5.6,10.289-7.279
		c4.062-1.681,8.517-2.521,13.369-2.521c5.32,0,10.127,1.05,14.42,3.15s7.746,5.158,10.361,9.17c3.08-3.92,6.975-6.952,11.689-9.101
		c4.713-2.146,9.87-3.22,15.471-3.22C1393.379,105.25,1400.869,108.028,1406.422,113.58z"/>
	<path fill="#FFFFFF" d="M1497.982,110.08c5.739,3.22,10.241,7.748,13.51,13.58c3.266,5.834,4.9,12.624,4.9,20.369
		c0,7.748-1.636,14.539-4.9,20.371c-3.268,5.834-7.771,10.359-13.51,13.58c-5.74,3.22-12.111,4.83-19.111,4.83
		c-10.359,0-18.248-3.267-23.658-9.802v8.681h-20.86V77.811h21.84v36.54c5.506-6.066,13.065-9.101,22.68-9.101
		C1485.871,105.25,1492.242,106.86,1497.982,110.08z M1488.883,159.221c3.592-3.779,5.39-8.843,5.39-15.189
		c0-6.346-1.798-11.41-5.39-15.19c-3.596-3.779-8.19-5.67-13.791-5.67c-5.6,0-10.197,1.891-13.789,5.67
		c-3.596,3.78-5.391,8.845-5.391,15.19c0,6.348,1.795,11.41,5.391,15.189c3.593,3.779,8.189,5.67,13.789,5.67
		C1480.692,164.891,1485.287,163,1488.883,159.221z"/>
	<path fill="#FFFFFF" d="M1532.07,92.37c-2.521-2.332-3.781-5.226-3.781-8.68c0-3.452,1.26-6.346,3.781-8.681
		c2.52-2.331,5.785-3.5,9.799-3.5c4.012,0,7.281,1.12,9.801,3.36c2.52,2.24,3.779,5.04,3.779,8.4c0,3.64-1.26,6.649-3.779,9.029
		c-2.52,2.381-5.789,3.57-9.801,3.57C1537.855,95.87,1534.59,94.704,1532.07,92.37z M1530.949,106.37h21.84v75.319h-21.84V106.37z"
		/>
	<path fill="#FFFFFF" d="M1587.58,177.841c-6.301-3.313-11.225-7.909-14.771-13.791c-3.547-5.88-5.317-12.552-5.317-20.021
		c0-7.465,1.771-14.139,5.317-20.021c3.547-5.88,8.472-10.476,14.771-13.79c6.299-3.312,13.416-4.97,21.35-4.97
		c7.933,0,15.025,1.658,21.279,4.97c6.252,3.314,11.152,7.91,14.701,13.79c3.545,5.882,5.318,12.556,5.318,20.021
		c0,7.469-1.773,14.141-5.318,20.021c-3.549,5.882-8.449,10.479-14.701,13.791c-6.254,3.313-13.348,4.97-21.279,4.97
		C1600.996,182.811,1593.879,181.154,1587.58,177.841z M1622.719,159.221c3.592-3.779,5.392-8.843,5.392-15.189
		c0-6.346-1.8-11.41-5.392-15.19c-3.594-3.779-8.188-5.67-13.789-5.67c-5.6,0-10.221,1.891-13.86,5.67
		c-3.64,3.78-5.459,8.845-5.459,15.19c0,6.348,1.819,11.41,5.459,15.189c3.641,3.779,8.262,5.67,13.86,5.67
		C1614.529,164.891,1619.125,163,1622.719,159.221z"/>
</g>
<g>
	<g>
		<path fill="#FFFFFF" d="M258.255,195.77c16.703-21.181,25.048-47.756,23.45-74.685C278.163,60.146,225.89,13.618,164.951,17.16
			c-27.403,1.556-53.237,13.289-72.442,32.899l15.077-0.876l0.703,12.104c15.658-14.973,36.14-23.872,57.771-25.103
			c50.431-2.932,93.692,35.576,96.622,86.007c1.299,21.879-5.338,43.497-18.691,60.879l-10.716-9.539l1.172,20.181l0.704,12.101
			l15.076-0.875l17.209-1.002L258.255,195.77z"/>
		<path fill="#FFFFFF" d="M250.224,204.938l-15.076,0.877l-0.704-12.101c-15.658,14.97-36.141,23.869-57.772,25.099
			c-50.43,2.935-93.69-35.573-96.622-86.004c-1.298-21.882,5.338-43.496,18.692-60.878l10.716,9.539l-1.173-20.18l-0.704-12.104
			L92.506,50.06l-17.21,1.001l9.181,8.169c-16.705,21.181-25.049,47.758-23.451,74.684c3.542,60.938,55.815,107.464,116.752,103.925
			C205.185,236.285,231.02,224.551,250.224,204.938z"/>
		<g>
			<g>
				<path fill="#283149" d="M269.175,212.621c-0.058-1.16-0.506-2.121-1.34-2.875l-43.188-39.061
					c-0.837-0.756-1.835-1.103-2.999-1.045c-1.163,0.061-2.121,0.508-2.876,1.342c-0.756,0.836-1.104,1.834-1.045,2.998
					l2.065,41.121c0.058,1.164,0.506,2.121,1.34,2.879c0.835,0.754,1.836,1.104,2.997,1.043l41.122-2.063
					c1.162-0.06,2.123-0.506,2.879-1.34C268.884,214.783,269.231,213.785,269.175,212.621z"/>
			</g>
		</g>
		<g>
			<g>
				<path fill="#FFFFFF" d="M277.384,206.428c-0.056-1.16-0.505-2.123-1.34-2.879l-43.188-39.055
					c-0.835-0.758-1.834-1.105-2.997-1.047c-1.162,0.06-2.123,0.507-2.879,1.341c-0.755,0.837-1.103,1.835-1.044,2.998l2.066,41.121
					c0.058,1.163,0.505,2.122,1.34,2.879c0.834,0.756,1.835,1.104,2.997,1.045l41.123-2.063c1.162-0.06,2.123-0.507,2.878-1.343
					C277.093,208.588,277.441,207.59,277.384,206.428z"/>
			</g>
		</g>
		<g>
			<g>
				<path fill="#283149" d="M72.525,41.508c0.059,1.163,0.506,2.122,1.34,2.878l43.188,39.058c0.836,0.756,1.835,1.104,2.998,1.046
					c1.164-0.059,2.122-0.506,2.878-1.341c0.756-0.836,1.104-1.834,1.045-2.998l-2.065-41.124c-0.059-1.163-0.505-2.122-1.341-2.878
					c-0.834-0.755-1.835-1.104-2.998-1.044L76.449,37.17c-1.162,0.06-2.123,0.505-2.878,1.339
					C72.814,39.344,72.468,40.344,72.525,41.508z"/>
			</g>
		</g>
		<g>
			<g>
				<path fill="#FFFFFF" d="M65.379,48.382c0.058,1.162,0.506,2.122,1.34,2.878l43.188,39.058c0.835,0.756,1.834,1.104,2.997,1.047
					c1.164-0.061,2.122-0.508,2.878-1.343c0.755-0.835,1.104-1.833,1.045-2.996l-2.065-41.125c-0.06-1.162-0.506-2.122-1.34-2.878
					c-0.835-0.755-1.836-1.104-2.998-1.044l-41.122,2.064c-1.162,0.06-2.124,0.505-2.878,1.34
					C65.669,46.221,65.322,47.218,65.379,48.382z"/>
			</g>
		</g>
	</g>
	<g>
		<g id="surface1_1_">
			<path fill="#FFFFFF" d="M161.563,141.367l-35.819,38.412c-3.283,3.521-8.853,3.715-12.372,0.432
				c-3.522-3.284-3.715-8.852-0.432-12.373l35.82-38.412l12.372-0.431L161.563,141.367z"/>
			<path fill="#FFFFFF" d="M166.669,110.217l12.804,11.938l-17.91,19.208l-12.804-11.941L166.669,110.217z"/>
			<path fill="#FFFFFF" d="M225.461,117.768l-17.315,18.565c-12.664,2.671-29.395-2.875-41.045-13.741
				c-11.653-10.865-18.354-27.168-16.572-39.989l17.313-18.567c12.666-2.671,29.397,2.876,41.048,13.741
				C220.542,88.644,227.242,104.947,225.461,117.768z"/>
			<path fill="#FFFFFF" d="M195.909,149.458c-3.534-3.297-3.73-8.835-0.431-12.372l29.852-32.01
				c3.296-3.537,8.834-3.729,12.371-0.432c3.535,3.297,3.729,8.835,0.43,12.373l-29.85,32.008
				C204.984,152.563,199.443,152.754,195.909,149.458z"/>
			<path fill="#FFFFFF" d="M142.167,96.714c-3.538-3.299-3.732-8.838-0.432-12.373l29.849-32.01
				c3.296-3.536,8.835-3.728,12.373-0.434c3.535,3.299,3.727,8.837,0.429,12.373l-29.85,32.011
				C151.241,99.817,145.7,100.01,142.167,96.714z"/>
		</g>
	</g>
</g>
</svg>
