<?xml version="1.0" encoding="utf-8"?>
<!-- Generator: Adobe Illustrator 16.0.0, SVG Export Plug-In . SVG Version: 6.00 Build 0)  -->
<!DOCTYPE svg PUBLIC "-//W3C//DTD SVG 1.1//EN" "http://www.w3.org/Graphics/SVG/1.1/DTD/svg11.dtd">
<svg version="1.1" id="Camada_1" xmlns="http://www.w3.org/2000/svg" xmlns:xlink="http://www.w3.org/1999/xlink" x="0px" y="0px"
	 width="1662px" height="255px" viewBox="0 0 1662 255" enable-background="new 0 0 1662 255" xml:space="preserve">
<g>
	<path fill="#283149" d="M388.762,80.59c7.2,3.802,12.799,9.401,16.8,16.801c3.999,7.401,6,16.35,6,26.85v57.45h-24.3v-25.2h-48
		v25.2h-24v-57.45c0-10.5,2-19.448,6-26.85c3.999-7.399,9.6-12.999,16.8-16.801c7.2-3.799,15.649-5.699,25.35-5.699
		C373.111,74.891,381.563,76.791,388.762,80.59z M387.262,136.99v-15c0-8.7-2.151-15.274-6.45-19.725
		c-4.301-4.449-10.151-6.676-17.55-6.676c-7.5,0-13.375,2.227-17.625,6.676c-4.251,4.45-6.375,11.024-6.375,19.725v15H387.262z"/>
	<path fill="#283149" d="M464.621,108.05c4.432-1.865,9.542-2.8,15.33-2.8v20.16c-2.428-0.186-4.06-0.28-4.9-0.28
		c-6.254,0-11.154,1.75-14.7,5.25c-3.548,3.5-5.32,8.75-5.32,15.75v35.561h-21.84v-75.32h20.86v9.94
		C456.663,112.67,460.187,109.918,464.621,108.05z"/>
	<path fill="#283149" d="M524.401,108.05c4.432-1.865,9.542-2.8,15.33-2.8v20.16c-2.428-0.186-4.06-0.28-4.9-0.28
		c-6.254,0-11.154,1.75-14.7,5.25c-3.548,3.5-5.32,8.75-5.32,15.75v35.561h-21.84v-75.32h20.86v9.94
		C516.443,112.67,519.967,109.918,524.401,108.05z"/>
	<path fill="#283149" d="M600.423,163.561c3.032-1.166,5.856-3.011,8.47-5.53l11.62,12.6c-7.094,8.12-17.454,12.181-31.08,12.181
		c-8.494,0-16.008-1.656-22.54-4.97c-6.534-3.313-11.574-7.91-15.12-13.791c-3.548-5.88-5.32-12.552-5.32-20.02
		c0-7.372,1.75-14.021,5.25-19.95c3.5-5.926,8.306-10.546,14.42-13.86c6.112-3.312,12.996-4.97,20.65-4.97
		c7.186,0,13.72,1.519,19.6,4.55c5.88,3.034,10.57,7.42,14.07,13.16s5.25,12.53,5.25,20.37l-55.72,10.78
		c1.586,3.734,4.082,6.534,7.49,8.399c3.406,1.868,7.582,2.801,12.53,2.801C593.913,165.311,597.389,164.729,600.423,163.561z
		 M573.333,127.09c-3.454,3.549-5.274,8.448-5.46,14.7l36.68-7.14c-1.028-3.92-3.128-7.046-6.3-9.38c-3.174-2.332-7-3.5-11.48-3.5
		C581.265,121.771,576.785,123.544,573.333,127.09z"/>
	<path fill="#283149" d="M759.322,113.58c5.551,5.554,8.33,13.884,8.33,24.99v43.12h-21.84v-39.76c0-5.973-1.238-10.431-3.711-13.37
		c-2.473-2.94-5.998-4.41-10.57-4.41c-5.133,0-9.193,1.658-12.18,4.97c-2.988,3.314-4.48,8.238-4.48,14.771v37.8h-21.84v-39.76
		c0-11.853-4.76-17.78-14.279-17.78c-5.039,0-9.055,1.658-12.039,4.97c-2.988,3.314-4.48,8.238-4.48,14.771v37.8h-21.84v-75.32
		h20.859v8.68c2.801-3.172,6.23-5.6,10.291-7.279c4.059-1.681,8.516-2.521,13.369-2.521c5.32,0,10.125,1.05,14.42,3.15
		c4.291,2.1,7.746,5.158,10.359,9.17c3.08-3.92,6.977-6.952,11.691-9.101c4.711-2.146,9.869-3.22,15.469-3.22
		C746.277,105.25,753.768,108.028,759.322,113.58z"/>
	<path fill="#283149" d="M864.531,106.37v75.32h-20.859v-8.681c-5.414,6.535-13.254,9.801-23.521,9.801
		c-7.094,0-13.51-1.586-19.25-4.76c-5.738-3.172-10.244-7.7-13.51-13.581c-3.268-5.88-4.898-12.691-4.898-20.439
		c0-7.746,1.631-14.561,4.898-20.44c3.266-5.88,7.771-10.405,13.51-13.58c5.74-3.172,12.156-4.76,19.25-4.76
		c9.613,0,17.127,3.034,22.541,9.101v-7.98H864.531z M837.65,159.22c3.641-3.779,5.461-8.842,5.461-15.189
		c0-6.346-1.82-11.41-5.461-15.19c-3.639-3.779-8.213-5.67-13.719-5.67c-5.6,0-10.221,1.891-13.861,5.67
		c-3.639,3.78-5.459,8.845-5.459,15.19c0,6.348,1.82,11.41,5.459,15.189c3.641,3.78,8.262,5.671,13.861,5.671
		C829.438,164.891,834.012,163,837.65,159.22z"/>
	<path fill="#283149" d="M930.051,178.051c-2.148,1.588-4.785,2.777-7.91,3.569c-3.129,0.792-6.371,1.19-9.73,1.19
		c-9.055,0-16.008-2.286-20.859-6.86c-4.855-4.572-7.281-11.292-7.281-20.16V89.71h21.84v18.34h18.621v16.801h-18.621v30.659
		c0,3.175,0.793,5.624,2.381,7.351c1.586,1.728,3.871,2.59,6.859,2.59c3.359,0,6.346-0.932,8.961-2.8L930.051,178.051z"/>
	<path fill="#283149" d="M988.357,163.561c3.031-1.166,5.855-3.011,8.471-5.53l11.619,12.6c-7.094,8.12-17.453,12.181-31.08,12.181
		c-8.494,0-16.008-1.656-22.539-4.97c-6.535-3.313-11.574-7.91-15.121-13.791c-3.547-5.88-5.318-12.552-5.318-20.02
		c0-7.372,1.75-14.021,5.25-19.95c3.5-5.926,8.305-10.546,14.42-13.86c6.111-3.312,12.994-4.97,20.648-4.97
		c7.188,0,13.721,1.519,19.602,4.55c5.879,3.034,10.568,7.42,14.068,13.16s5.25,12.53,5.25,20.37l-55.719,10.78
		c1.586,3.734,4.082,6.534,7.49,8.399c3.404,1.868,7.582,2.801,12.529,2.801C981.848,165.311,985.324,164.729,988.357,163.561z
		 M961.268,127.09c-3.453,3.549-5.273,8.448-5.459,14.7l36.68-7.14c-1.029-3.92-3.129-7.046-6.301-9.38
		c-3.174-2.332-7-3.5-11.48-3.5C969.199,121.771,964.719,123.544,961.268,127.09z"/>
	<path fill="#283149" d="M1070.541,176.516c-8.65-4.65-15.451-11.101-20.4-19.351s-7.426-17.573-7.426-27.975
		c0-10.399,2.477-19.726,7.426-27.976s11.75-14.699,20.4-19.35c8.648-4.65,18.375-6.975,29.174-6.975c9.1,0,17.326,1.601,24.676,4.8
		c7.35,3.201,13.523,7.8,18.525,13.8l-15.6,14.4c-7.102-8.199-15.9-12.301-26.4-12.301c-6.502,0-12.301,1.426-17.4,4.275
		s-9.074,6.825-11.926,11.925c-2.85,5.101-4.273,10.901-4.273,17.4c0,6.501,1.424,12.3,4.273,17.399
		c2.852,5.101,6.826,9.075,11.926,11.926c5.1,2.85,10.898,4.274,17.4,4.274c10.5,0,19.299-4.148,26.4-12.45l15.6,14.4
		c-5.002,6.101-11.201,10.751-18.6,13.95c-7.402,3.199-15.652,4.8-24.75,4.8C1088.863,183.49,1079.189,181.165,1070.541,176.516z"/>
	<path fill="#283149" d="M1233.334,106.37v75.32h-20.859v-8.681c-5.414,6.535-13.254,9.801-23.521,9.801
		c-7.094,0-13.51-1.586-19.25-4.76c-5.738-3.172-10.244-7.7-13.51-13.581c-3.268-5.88-4.898-12.691-4.898-20.439
		c0-7.746,1.631-14.561,4.898-20.44c3.266-5.88,7.771-10.405,13.51-13.58c5.74-3.172,12.156-4.76,19.25-4.76
		c9.613,0,17.127,3.034,22.541,9.101v-7.98H1233.334z M1207.854,96.71l-12.18-10.64l-12.18,10.64h-15.961l18.48-20.16h19.32
		l18.48,20.16H1207.854z M1206.453,159.22c3.641-3.779,5.461-8.842,5.461-15.189c0-6.346-1.82-11.41-5.461-15.19
		c-3.639-3.779-8.213-5.67-13.719-5.67c-5.6,0-10.221,1.891-13.861,5.67c-3.639,3.78-5.459,8.845-5.459,15.19
		c0,6.348,1.82,11.41,5.459,15.189c3.641,3.78,8.262,5.671,13.861,5.671C1198.24,164.891,1202.814,163,1206.453,159.22z"/>
	<path fill="#283149" d="M1372.422,113.58c5.553,5.554,8.33,13.884,8.33,24.99v43.12h-21.84v-39.76
		c0-5.973-1.238-10.431-3.709-13.37c-2.475-2.94-5.998-4.41-10.57-4.41c-5.135,0-9.193,1.658-12.18,4.97
		c-2.988,3.314-4.48,8.238-4.48,14.771v37.8h-21.84v-39.76c0-11.853-4.76-17.78-14.279-17.78c-5.041,0-9.055,1.658-12.041,4.97
		c-2.988,3.314-4.48,8.238-4.48,14.771v37.8h-21.84v-75.32h20.861v8.68c2.799-3.172,6.229-5.6,10.289-7.279
		c4.061-1.681,8.516-2.521,13.369-2.521c5.32,0,10.127,1.05,14.42,3.15c4.293,2.1,7.746,5.158,10.361,9.17
		c3.08-3.92,6.975-6.952,11.689-9.101c4.713-2.146,9.871-3.22,15.471-3.22C1359.379,105.25,1366.869,108.028,1372.422,113.58z"/>
	<path fill="#283149" d="M1463.982,110.08c5.74,3.22,10.242,7.748,13.51,13.58c3.266,5.834,4.9,12.624,4.9,20.37
		c0,7.748-1.635,14.538-4.9,20.37c-3.268,5.834-7.77,10.36-13.51,13.58s-12.111,4.83-19.111,4.83
		c-10.359,0-18.248-3.266-23.658-9.801v8.681h-20.861V77.811h21.84v36.54c5.506-6.066,13.066-9.101,22.68-9.101
		C1451.871,105.25,1458.242,106.86,1463.982,110.08z M1454.883,159.22c3.592-3.779,5.389-8.842,5.389-15.189
		c0-6.346-1.797-11.41-5.389-15.19c-3.596-3.779-8.191-5.67-13.791-5.67s-10.197,1.891-13.789,5.67
		c-3.596,3.78-5.391,8.845-5.391,15.19c0,6.348,1.795,11.41,5.391,15.189c3.592,3.78,8.189,5.671,13.789,5.671
		S1451.287,163,1454.883,159.22z"/>
	<path fill="#283149" d="M1498.07,92.37c-2.521-2.332-3.781-5.226-3.781-8.68c0-3.452,1.26-6.346,3.781-8.681
		c2.52-2.331,5.785-3.5,9.799-3.5c4.012,0,7.281,1.12,9.801,3.36s3.779,5.04,3.779,8.4c0,3.64-1.26,6.649-3.779,9.029
		c-2.52,2.381-5.789,3.57-9.801,3.57C1503.855,95.87,1500.59,94.704,1498.07,92.37z M1496.949,106.37h21.84v75.32h-21.84V106.37z"/>
	<path fill="#283149" d="M1553.58,177.841c-6.301-3.313-11.225-7.91-14.771-13.791c-3.547-5.88-5.318-12.552-5.318-20.02
		c0-7.466,1.771-14.14,5.318-20.021c3.547-5.88,8.471-10.476,14.771-13.79c6.299-3.312,13.416-4.97,21.35-4.97
		c7.932,0,15.025,1.658,21.279,4.97c6.252,3.314,11.152,7.91,14.701,13.79c3.545,5.881,5.318,12.555,5.318,20.021
		c0,7.468-1.773,14.14-5.318,20.02c-3.549,5.881-8.449,10.479-14.701,13.791c-6.254,3.313-13.348,4.97-21.279,4.97
		C1566.996,182.811,1559.879,181.154,1553.58,177.841z M1588.719,159.22c3.592-3.779,5.391-8.842,5.391-15.189
		c0-6.346-1.799-11.41-5.391-15.19c-3.594-3.779-8.189-5.67-13.789-5.67s-10.221,1.891-13.861,5.67
		c-3.639,3.78-5.459,8.845-5.459,15.19c0,6.348,1.82,11.41,5.459,15.189c3.641,3.78,8.262,5.671,13.861,5.671
		S1585.125,163,1588.719,159.22z"/>
</g>
<g>
	<g>
		<path fill="#283149" d="M224.255,195.77c16.703-21.181,25.048-47.757,23.45-74.685C244.163,60.146,191.89,13.618,130.951,17.16
			c-27.403,1.556-53.237,13.289-72.442,32.899l15.077-0.876l0.703,12.104c15.658-14.973,36.14-23.872,57.771-25.103
			c50.431-2.932,93.692,35.576,96.622,86.007c1.299,21.88-5.338,43.497-18.691,60.879l-10.716-9.539l1.172,20.181l0.704,12.101
			l15.076-0.875l17.209-1.002L224.255,195.77z"/>
		<path fill="#00A644" d="M216.224,204.938l-15.076,0.877l-0.704-12.101c-15.658,14.97-36.141,23.869-57.772,25.099
			c-50.43,2.934-93.69-35.574-96.622-86.005c-1.298-21.881,5.338-43.495,18.692-60.878l10.716,9.539l-1.173-20.18l-0.704-12.104
			L58.506,50.06l-17.21,1.001l9.181,8.169c-16.705,21.181-25.049,47.758-23.451,74.684c3.542,60.938,55.815,107.464,116.752,103.925
			C171.185,236.285,197.02,224.551,216.224,204.938z"/>
		<g>
			<g>
				<path fill="#FFFFFF" d="M235.175,212.621c-0.058-1.16-0.506-2.121-1.34-2.875l-43.188-39.06
					c-0.837-0.756-1.835-1.103-2.999-1.045c-1.163,0.06-2.121,0.507-2.876,1.341c-0.756,0.836-1.104,1.835-1.045,2.998l2.065,41.122
					c0.058,1.164,0.506,2.121,1.34,2.879c0.835,0.754,1.836,1.104,2.997,1.043l41.122-2.064c1.162-0.059,2.123-0.506,2.879-1.34
					C234.884,214.783,235.231,213.785,235.175,212.621z"/>
			</g>
		</g>
		<g>
			<g>
				<path fill="#283149" d="M243.384,206.428c-0.056-1.16-0.505-2.123-1.34-2.879l-43.188-39.055
					c-0.835-0.757-1.834-1.105-2.997-1.047c-1.162,0.06-2.123,0.507-2.879,1.341c-0.755,0.837-1.103,1.835-1.044,2.998l2.066,41.121
					c0.058,1.164,0.505,2.123,1.34,2.879c0.834,0.756,1.835,1.104,2.997,1.045l41.123-2.064c1.162-0.059,2.123-0.506,2.878-1.342
					C243.093,208.588,243.441,207.59,243.384,206.428z"/>
			</g>
		</g>
		<g>
			<g>
				<path fill="#FFFFFF" d="M38.525,41.508c0.059,1.163,0.506,2.122,1.34,2.878l43.188,39.058c0.836,0.756,1.835,1.104,2.998,1.046
					c1.164-0.059,2.122-0.506,2.878-1.341c0.756-0.836,1.104-1.834,1.045-2.998l-2.065-41.124c-0.059-1.163-0.505-2.122-1.341-2.878
					c-0.834-0.755-1.835-1.104-2.998-1.044L42.449,37.17c-1.162,0.06-2.123,0.505-2.878,1.339
					C38.814,39.344,38.468,40.344,38.525,41.508z"/>
			</g>
		</g>
		<g>
			<g>
				<path fill="#00A644" d="M31.379,48.382c0.058,1.162,0.506,2.122,1.34,2.878l43.188,39.058c0.835,0.756,1.834,1.104,2.997,1.047
					c1.164-0.061,2.122-0.508,2.878-1.343c0.755-0.835,1.104-1.833,1.045-2.996l-2.065-41.125c-0.06-1.162-0.506-2.122-1.34-2.878
					c-0.835-0.755-1.836-1.104-2.998-1.044l-41.122,2.064c-1.162,0.06-2.124,0.505-2.878,1.34
					C31.669,46.221,31.322,47.218,31.379,48.382z"/>
			</g>
		</g>
	</g>
	<g>
		<g id="surface1_1_">
			<path fill="#00A644" d="M127.563,141.367l-35.819,38.412c-3.283,3.521-8.853,3.715-12.372,0.432
				c-3.522-3.284-3.715-8.851-0.432-12.373l35.82-38.412l12.372-0.431L127.563,141.367z"/>
			<path fill="#00A644" d="M132.669,110.217l12.804,11.938l-17.91,19.208l-12.804-11.941L132.669,110.217z"/>
			<path fill="#00A644" d="M191.461,117.768l-17.315,18.565c-12.664,2.671-29.395-2.875-41.045-13.741
				c-11.653-10.865-18.354-27.168-16.572-39.989l17.313-18.567c12.666-2.671,29.397,2.876,41.048,13.741
				C186.542,88.644,193.242,104.947,191.461,117.768z"/>
			<path fill="#00A644" d="M161.909,149.458c-3.534-3.297-3.73-8.835-0.431-12.372l29.852-32.01
				c3.296-3.537,8.834-3.729,12.371-0.432c3.535,3.297,3.729,8.835,0.43,12.373l-29.85,32.009
				C170.984,152.562,165.443,152.754,161.909,149.458z"/>
			<path fill="#00A644" d="M108.167,96.714c-3.538-3.299-3.732-8.838-0.432-12.373l29.849-32.01
				c3.296-3.536,8.835-3.728,12.373-0.434c3.535,3.299,3.727,8.837,0.429,12.373l-29.85,32.011
				C117.241,99.817,111.7,100.01,108.167,96.714z"/>
		</g>
	</g>
</g>
</svg>
