<?xml version="1.0" encoding="utf-8"?>
<!-- Generator: Adobe Illustrator 19.0.0, SVG Export Plug-In . SVG Version: 6.00 Build 0)  -->
<svg version="1.1" id="Camada_1" xmlns="http://www.w3.org/2000/svg" xmlns:xlink="http://www.w3.org/1999/xlink" x="0px" y="0px"
	 viewBox="-33 25.28 132 93.72" style="enable-background:new -33 25.28 132 93.72;" xml:space="preserve">
<style type="text/css">
	.st0{fill:#5892CF;}
	.st1{opacity:0.5;fill:url(#XMLID_2_);enable-background:new    ;}
	.st2{opacity:0.5;fill:url(#XMLID_6_);enable-background:new    ;}
	.st3{opacity:0.5;}
	.st4{fill:url(#XMLID_7_);}
	.st5{fill:url(#XMLID_13_);}
	.st6{fill:#66AC5F;}
	.st7{opacity:0.7;fill:url(#XMLID_14_);enable-background:new    ;}
	.st8{opacity:0.5;fill:url(#XMLID_16_);enable-background:new    ;}
	.st9{opacity:0.7;fill:url(#XMLID_17_);enable-background:new    ;}
	.st10{opacity:0.5;fill:url(#XMLID_18_);enable-background:new    ;}
	.st11{opacity:0.5;fill:url(#XMLID_19_);enable-background:new    ;}
	.st12{opacity:0.5;fill:url(#XMLID_20_);enable-background:new    ;}
	.st13{fill:#FFFFFF;}
</style>
<g id="XMLID_33_">
	<g id="XMLID_3_">
		<g id="XMLID_31_">
			<path id="XMLID_55_" class="st0" d="M26.445,53.938c-0.007,0.337,0.017,0.674,0.069,1.006c0.043,0.269,0.105,0.535,0.186,0.794
				c0.173,0.549,0.434,1.069,0.784,1.531l0,0l-0.001,0.001l0.23,0.304l0.936,1.236l0.488,0.644l0.252,0.333l3.858,5.092l0.928,1.225
				l0.496,0.655l0.175,0.232l0.001-0.001c0.008,0.01,0.016,0.018,0.023,0.028c0.283,0.507,0.479,1.06,0.583,1.633
				c0.009,0.045,0.016,0.09,0.023,0.134c0.008,0.053,0.016,0.105,0.023,0.159c0.191,1.467-0.19,3.012-1.121,4.131
				c1.019,0.053,2.056-0.356,2.872-1.239c0.853-0.922,1.298-2.184,1.322-3.458c0.006-0.336-0.017-0.674-0.07-1.006
				c-0.043-0.269-0.105-0.535-0.186-0.794c-0.173-0.549-0.434-1.07-0.783-1.531l0,0l0.001-0.001l-0.23-0.303l-0.708-0.935
				l-0.488-0.643l-0.253-0.334l-3.857-5.092l-0.928-1.226l-0.496-0.654l-0.404-0.532l-0.001,0.001
				c-0.008-0.01-0.015-0.019-0.023-0.028c-0.284-0.507-0.479-1.06-0.584-1.633c-0.008-0.045-0.016-0.089-0.023-0.134
				c-0.008-0.052-0.016-0.105-0.023-0.158c-0.191-1.467,0.19-3.012,1.121-4.131c-1.019-0.052-2.057,0.356-2.873,1.239
				C26.913,51.404,26.468,52.664,26.445,53.938z"/>
		</g>
		
			<linearGradient id="XMLID_2_" gradientUnits="userSpaceOnUse" x1="-88.9878" y1="-364.8306" x2="-79.7978" y2="-364.8306" gradientTransform="matrix(-0.6712 -0.7413 -0.7413 0.6712 -296.2307 237.8001)">
			<stop  offset="0.3139" style="stop-color:#FFFFFF;stop-opacity:0"/>
			<stop  offset="1" style="stop-color:#272425"/>
		</linearGradient>
		<path id="XMLID_30_" class="st1" d="M26.459,53.472c-0.012,0.138-0.022,0.276-0.023,0.415c-0.006,0.337,0.017,0.674,0.069,1.006
			c0.043,0.269,0.106,0.535,0.187,0.794c0.173,0.549,0.434,1.069,0.783,1.53l0,0l-0.001,0.002l0.23,0.303l0.936,1.236l0.488,0.643
			l0.252,0.334l0.718,0.947l2.287-2.475l-0.396-0.522l-0.928-1.226l-0.496-0.654l-0.404-0.532l-0.001,0.001
			c-0.008-0.009-0.016-0.018-0.023-0.028c-0.283-0.506-0.479-1.061-0.584-1.633c-0.008-0.044-0.016-0.089-0.023-0.133
			c-0.009-0.052-0.016-0.105-0.023-0.158c-0.03-0.236-0.045-0.473-0.046-0.709c-0.007-1.242,0.385-2.483,1.167-3.421
			c-1.02-0.053-2.057,0.355-2.873,1.239C26.997,51.251,26.562,52.342,26.459,53.472z"/>
		<path id="XMLID_29_" class="st0" d="M13.542,54.658c-0.006,0.337,0.017,0.674,0.069,1.006c0.043,0.27,0.105,0.535,0.187,0.794
			c0.173,0.55,0.433,1.07,0.783,1.53l0.001,0.001l-0.001,0.001l0.23,0.304l0.936,1.236l0.488,0.644l0.252,0.334l0.393,0.519
			l0.404,0.532l0.496,0.655l0.928,1.225l1.9,2.507l0.928,1.225l0.496,0.653l0.404,0.533l0.393,0.519l0.253,0.334l0.487,0.643
			l0.936,1.236l0.23,0.304c0.127,0.169,0.263,0.321,0.404,0.463c0.006,0.006,0.012,0.012,0.018,0.018
			c0.041,0.04,0.081,0.079,0.123,0.116c0.011,0.01,0.022,0.02,0.032,0.03c0.039,0.035,0.079,0.068,0.119,0.102
			c0.014,0.011,0.028,0.023,0.042,0.034c0.038,0.031,0.077,0.061,0.116,0.09c0.016,0.012,0.032,0.023,0.048,0.036
			c0.038,0.027,0.077,0.054,0.115,0.08c0.018,0.012,0.036,0.023,0.054,0.035c0.037,0.024,0.075,0.049,0.114,0.071
			c0.004,0.003,0.008,0.006,0.012,0.008c0.017,0.01,0.035,0.02,0.052,0.028c0.035,0.02,0.069,0.04,0.104,0.058
			c0.014,0.008,0.029,0.014,0.043,0.022c0.071,0.036,0.142,0.07,0.214,0.1c0.025,0.011,0.051,0.023,0.076,0.033
			c0.032,0.013,0.064,0.025,0.096,0.036c0.019,0.008,0.038,0.015,0.057,0.022c0.008,0.003,0.015,0.005,0.022,0.007
			c0.045,0.016,0.092,0.03,0.137,0.044c0.022,0.006,0.044,0.013,0.065,0.02c0.045,0.013,0.091,0.024,0.137,0.035
			c0.023,0.005,0.045,0.011,0.067,0.016c0.045,0.01,0.092,0.018,0.137,0.025c0.023,0.004,0.046,0.008,0.069,0.012
			c0.045,0.006,0.091,0.012,0.136,0.017c0.02,0.002,0.04,0.006,0.06,0.008c0.003,0.001,0.006,0,0.01,0.001
			c0.034,0.003,0.067,0.004,0.101,0.006c0.034,0.002,0.067,0.004,0.101,0.006c0.003,0,0.006,0.001,0.009,0.001
			c0.021,0,0.041-0.001,0.061-0.001c0.046,0,0.092,0.001,0.138-0.001c0.023-0.001,0.046-0.003,0.069-0.004
			c0.046-0.002,0.092-0.005,0.138-0.009c0.023-0.002,0.045-0.004,0.068-0.007c0.047-0.005,0.093-0.011,0.139-0.018
			c0.022-0.003,0.044-0.007,0.066-0.011c0.047-0.009,0.094-0.017,0.141-0.028c0.007-0.001,0.015-0.002,0.022-0.004
			c0.019-0.005,0.039-0.01,0.058-0.015c0.032-0.008,0.066-0.016,0.099-0.025c0.027-0.007,0.054-0.016,0.081-0.023
			c0.07-0.022,0.14-0.045,0.21-0.071c0.018-0.007,0.037-0.013,0.054-0.02c0.036-0.015,0.072-0.03,0.108-0.046
			c0.018-0.008,0.036-0.015,0.055-0.023c0.004-0.002,0.009-0.004,0.013-0.006c0.04-0.018,0.079-0.037,0.119-0.057
			c0.019-0.009,0.038-0.018,0.057-0.029c0.041-0.021,0.081-0.043,0.121-0.066c0.017-0.01,0.035-0.02,0.052-0.03
			c0.041-0.025,0.082-0.05,0.122-0.076c0.015-0.009,0.03-0.02,0.045-0.03c0.042-0.027,0.084-0.056,0.126-0.086
			c0.012-0.008,0.024-0.018,0.036-0.026c0.044-0.033,0.088-0.065,0.131-0.101c0.007-0.006,0.014-0.011,0.021-0.016
			c0.152-0.124,0.3-0.26,0.44-0.412l0.253-0.275l1.033-1.119l0.539-0.583l0.279-0.302l4.142-4.482l1.9-2.056l5.992-6.484
			l0.479-0.518c0.034-0.031,0.068-0.062,0.101-0.098l1.5-1.623l0.372-0.402l0.044-0.047l0.278-0.3
			c0.451-0.386,0.951-0.645,1.469-0.781c0.037-0.009,0.075-0.018,0.112-0.027c0.044-0.011,0.089-0.019,0.133-0.027
			c0.172-0.032,0.346-0.049,0.52-0.054c0.131-1.255-0.15-2.563-0.857-3.611c-0.045-0.003-0.09-0.006-0.136-0.008
			c-0.282-0.007-0.564,0.02-0.842,0.083c-0.225,0.051-0.447,0.125-0.665,0.223c-0.459,0.207-0.895,0.518-1.281,0.936l0,0
			l-0.001-0.001l-0.253,0.276l-0.445,0.482l-0.479,0.519c-0.034,0.031-0.068,0.061-0.1,0.097l-1.871,2.026l-0.044,0.047l-6.08,6.578
			l-1.9,2.056l-5.046,5.461L29.02,68.3l-0.128,0.138c-0.013,0.013-0.026,0.027-0.04,0.04c-0.075,0.063-0.152,0.123-0.231,0.18
			c-0.578,0.379-1.29,0.34-1.836-0.101c-0.08-0.071-0.157-0.146-0.233-0.225c-0.004-0.004-0.008-0.009-0.012-0.014l-0.147-0.194
			l-0.474-0.626l-1.211-1.599l-1.709-2.255l-0.04-0.053l-2.059-2.717l-0.04-0.052l-1.709-2.255l-1.211-1.599l-0.628-0.829
			c-0.322-0.539-0.539-1.137-0.653-1.755c-0.008-0.045-0.016-0.089-0.023-0.134c-0.009-0.052-0.016-0.105-0.023-0.158
			c-0.191-1.467,0.19-3.012,1.121-4.131c-1.019-0.052-2.056,0.355-2.872,1.239C14.01,52.124,13.565,53.384,13.542,54.658z"/>
		
			<linearGradient id="XMLID_6_" gradientUnits="userSpaceOnUse" x1="-92.6099" y1="-369.6436" x2="-92.6099" y2="-382.6358" gradientTransform="matrix(-0.6712 -0.7413 -0.7413 0.6712 -296.2307 237.8001)">
			<stop  offset="0.3139" style="stop-color:#FFFFFF;stop-opacity:0"/>
			<stop  offset="1" style="stop-color:#272425"/>
		</linearGradient>
		<path id="XMLID_28_" class="st2" d="M43.817,55.63l0.496,0.654l0.121,0.16l0.049,0.064l0.074-0.08l0.479-0.518
			c0.034-0.031,0.068-0.062,0.101-0.098l1.5-1.623l0.372-0.402l0.044-0.047l0.278-0.3c0.451-0.386,0.951-0.645,1.469-0.781
			c0.037-0.009,0.075-0.018,0.112-0.027c0.044-0.011,0.089-0.019,0.133-0.027c0.172-0.032,0.346-0.049,0.52-0.054
			c0.131-1.255-0.15-2.563-0.857-3.611c-0.045-0.003-0.09-0.006-0.136-0.008c-0.282-0.007-0.564,0.02-0.842,0.083
			c-0.225,0.051-0.447,0.125-0.665,0.223c-0.459,0.207-0.895,0.518-1.281,0.936l0,0l-0.001-0.001l-0.254,0.275l-0.445,0.482
			l-0.479,0.519c-0.034,0.031-0.068,0.061-0.1,0.097l-1.871,2.026l-0.044,0.047l-0.161,0.175l0.463,0.612L43.817,55.63z"/>
		<g id="XMLID_24_" class="st3">
			
				<linearGradient id="XMLID_7_" gradientUnits="userSpaceOnUse" x1="-93.1248" y1="-359.7127" x2="-99.9212" y2="-359.7127" gradientTransform="matrix(-0.6712 -0.7413 -0.7413 0.6712 -296.2307 237.8001)">
				<stop  offset="0.3139" style="stop-color:#FFFFFF;stop-opacity:0"/>
				<stop  offset="1" style="stop-color:#272425"/>
			</linearGradient>
			<path id="XMLID_45_" class="st4" d="M33.248,64.88l0.928,1.225l0.496,0.655l0.175,0.232l0.001-0.001
				c0.008,0.01,0.016,0.018,0.023,0.028c0.283,0.507,0.479,1.06,0.583,1.633c0.009,0.045,0.016,0.09,0.023,0.134
				c0.008,0.053,0.016,0.105,0.023,0.159c0.029,0.224,0.043,0.45,0.046,0.676c0.014,1.253-0.378,2.507-1.167,3.455
				c1.013,0.052,2.044-0.351,2.857-1.223c0.005-0.005,0.01-0.01,0.015-0.016c0.853-0.922,1.298-2.184,1.322-3.458
				c0.006-0.336-0.017-0.674-0.07-1.006c-0.043-0.269-0.105-0.535-0.186-0.794c-0.173-0.549-0.434-1.07-0.783-1.531l0,0l0.001-0.001
				l-0.23-0.303l-0.708-0.935l-0.488-0.643l-0.253-0.334l-1.305-1.723l-2.287,2.474L33.248,64.88z"/>
		</g>
		<g id="XMLID_21_" class="st3">
			
				<linearGradient id="XMLID_13_" gradientUnits="userSpaceOnUse" x1="4052.2639" y1="-2233.3352" x2="4044.3269" y2="-2233.3352" gradientTransform="matrix(0.6712 0.7413 0.7413 -0.6712 -1044.2898 -4444.374)">
				<stop  offset="0.3139" style="stop-color:#FFFFFF;stop-opacity:0"/>
				<stop  offset="0.3256" style="stop-color:#F8F8F8;stop-opacity:0.017"/>
				<stop  offset="0.4266" style="stop-color:#C1C1C1;stop-opacity:0.1642"/>
				<stop  offset="0.5281" style="stop-color:#929191;stop-opacity:0.3122"/>
				<stop  offset="0.6282" style="stop-color:#6C6A6A;stop-opacity:0.4581"/>
				<stop  offset="0.7264" style="stop-color:#4E4B4C;stop-opacity:0.6012"/>
				<stop  offset="0.8223" style="stop-color:#383536;stop-opacity:0.7409"/>
				<stop  offset="0.9147" style="stop-color:#2B2829;stop-opacity:0.8757"/>
				<stop  offset="1" style="stop-color:#272425"/>
			</linearGradient>
			<path id="XMLID_44_" class="st5" d="M19.096,58.457l-0.928-1.226l-0.496-0.655l-0.404-0.532l-0.001,0.001
				c-0.008-0.01-0.016-0.018-0.023-0.028c-0.284-0.506-0.479-1.06-0.584-1.633c-0.008-0.045-0.016-0.09-0.023-0.134
				c-0.009-0.052-0.016-0.105-0.023-0.158c-0.029-0.224-0.044-0.45-0.045-0.676c-0.014-1.253,0.378-2.507,1.167-3.454
				c-1.013-0.052-2.043,0.351-2.858,1.223c-0.005,0.006-0.01,0.011-0.015,0.016c-0.853,0.924-1.298,2.184-1.321,3.458
				c-0.006,0.336,0.017,0.674,0.069,1.006c0.043,0.27,0.105,0.535,0.187,0.794c0.173,0.55,0.433,1.07,0.783,1.53l0.001,0.001
				l-0.001,0.001l0.23,0.304l0.936,1.236l0.488,0.644l0.252,0.334l1.305,1.722l2.287-2.474L19.096,58.457z"/>
		</g>
		<g id="XMLID_15_">
			<path id="XMLID_60_" class="st6" d="M13.549,54.472c1.023-0.997,2.347-1.297,3.55-0.924c0.044,0.013,0.087,0.027,0.13,0.042
				c0.036,0.013,0.073,0.027,0.109,0.041c0.504,0.196,0.981,0.514,1.397,0.95l0.628,0.828l4.553,6.009
				c0.011,0.015,0.021,0.031,0.032,0.046l-0.001,0.001l0.404,0.533l0.496,0.655l0.928,1.225l4.12,5.439l0.253,0.334l0.488,0.644
				l0.708,0.935l0.23,0.303l0.001-0.001v0.001c0.349,0.462,0.757,0.823,1.197,1.083c0.208,0.123,0.423,0.223,0.643,0.301
				c0.272,0.096,0.55,0.156,0.831,0.182c1.063,0.098,2.157-0.305,3.01-1.229c0.817-0.883,1.259-2.076,1.316-3.294
				c-1.023,0.997-2.347,1.296-3.55,0.924c-0.043-0.014-0.087-0.027-0.129-0.042c-0.036-0.013-0.073-0.027-0.109-0.041
				c-0.504-0.196-0.98-0.513-1.397-0.95l-0.399-0.528l-4.552-6.007c-0.011-0.016-0.022-0.033-0.034-0.049l0.001-0.001l-0.404-0.533
				l-0.496-0.655l-0.928-1.225l-4.121-5.439L22.2,53.697l-0.487-0.644l-0.936-1.236l-0.23-0.303l-0.001,0.001v-0.001
				c-0.349-0.461-0.757-0.823-1.197-1.083c-0.208-0.123-0.423-0.223-0.643-0.3c-0.271-0.096-0.55-0.157-0.831-0.182
				c-1.064-0.098-2.157,0.306-3.01,1.229C14.048,52.062,13.606,53.255,13.549,54.472z"/>
		</g>
		<path id="XMLID_12_" class="st6" d="M26.456,53.707c1.023-0.997,2.347-1.296,3.55-0.924c0.043,0.013,0.086,0.027,0.129,0.043
			c0.036,0.013,0.073,0.027,0.109,0.041c0.493,0.192,0.96,0.501,1.37,0.924l0.366,0.483l0.496,0.654l0.928,1.225l3.073,4.056
			l0.785,1.036l0.253,0.334l0.487,0.644l0.532,0.702l0.405,0.534l0.23,0.303c0.127,0.167,0.263,0.321,0.404,0.463
			c0.006,0.006,0.012,0.012,0.018,0.018c0.041,0.04,0.082,0.079,0.123,0.116c0.011,0.01,0.022,0.021,0.033,0.03
			c0.039,0.035,0.078,0.069,0.118,0.102c0.014,0.012,0.028,0.023,0.043,0.035c0.038,0.031,0.077,0.061,0.116,0.09
			c0.016,0.012,0.033,0.024,0.049,0.036c0.038,0.027,0.075,0.054,0.114,0.08c0.018,0.012,0.037,0.024,0.056,0.035
			c0.037,0.025,0.075,0.048,0.113,0.071c0.004,0.003,0.009,0.006,0.012,0.008c0.018,0.011,0.036,0.02,0.054,0.03
			c0.034,0.02,0.068,0.039,0.102,0.057c0.018,0.009,0.037,0.018,0.055,0.027c0.066,0.032,0.132,0.064,0.199,0.093
			c0.027,0.011,0.054,0.023,0.081,0.035c0.031,0.012,0.063,0.024,0.094,0.036c0.02,0.007,0.039,0.015,0.058,0.022
			c0.008,0.003,0.015,0.004,0.023,0.007c0.044,0.016,0.09,0.03,0.135,0.044c0.022,0.007,0.044,0.014,0.067,0.02
			c0.044,0.013,0.089,0.023,0.134,0.034c0.023,0.006,0.047,0.011,0.07,0.017c0.044,0.009,0.089,0.017,0.134,0.025
			c0.024,0.004,0.048,0.009,0.072,0.013c0.045,0.006,0.089,0.012,0.134,0.016c0.021,0.003,0.041,0.006,0.062,0.008
			c0.003,0.001,0.007,0,0.01,0.001c0.033,0.003,0.066,0.004,0.1,0.006c0.034,0.002,0.068,0.004,0.102,0.006
			c0.003,0,0.007,0.001,0.01,0.001c0.021,0.001,0.041-0.001,0.061-0.001c0.047,0.001,0.092,0.001,0.138-0.001
			c0.023-0.001,0.045-0.003,0.068-0.004c0.047-0.002,0.093-0.005,0.14-0.009c0.022-0.003,0.043-0.006,0.066-0.008
			c0.047-0.005,0.095-0.011,0.142-0.018c0.021-0.003,0.041-0.007,0.062-0.011c0.049-0.009,0.098-0.018,0.146-0.028
			c0.007-0.002,0.014-0.003,0.02-0.004c0.017-0.004,0.035-0.009,0.051-0.013c0.036-0.008,0.073-0.017,0.109-0.027
			c0.02-0.006,0.04-0.013,0.061-0.018c0.133-0.04,0.263-0.087,0.392-0.142c0.017-0.008,0.035-0.014,0.051-0.021
			c0.005-0.002,0.009-0.004,0.013-0.006c0.041-0.018,0.081-0.039,0.122-0.059c0.018-0.008,0.036-0.018,0.053-0.027
			c0.042-0.022,0.083-0.045,0.125-0.068c0.016-0.009,0.031-0.018,0.046-0.027c0.044-0.025,0.086-0.052,0.128-0.079
			c0.013-0.009,0.025-0.017,0.038-0.025c0.044-0.03,0.089-0.06,0.133-0.091c0.009-0.007,0.018-0.013,0.027-0.02
			c0.047-0.035,0.093-0.07,0.14-0.107c0.003-0.003,0.007-0.006,0.01-0.008c0.155-0.126,0.305-0.265,0.448-0.419
			c0.001-0.001,0.002-0.002,0.003-0.003l0.25-0.271l1.034-1.119l0.539-0.583l0.279-0.302l0.702-0.76l0.763-0.825l0.263-0.285
			l0.182-0.197l0.166-0.179l0.2-0.216l0.08-0.087l0.102-0.111l0.264-0.285l0.173-0.187l0.589-0.638l0.445-0.481l0.254-0.275
			l-0.001-0.001c0.386-0.417,0.688-0.905,0.906-1.431c0.102-0.248,0.186-0.505,0.251-0.768c0.08-0.324,0.131-0.657,0.153-0.993
			c0.003-0.054,0.005-0.108,0.007-0.162c0.044-1.215-0.295-2.451-1.029-3.425c-0.739-0.97-1.734-1.496-2.75-1.563
			c0.707,1.048,0.988,2.356,0.857,3.611c-0.021,0.206-0.053,0.412-0.096,0.613c-0.011,0.052-0.023,0.104-0.036,0.155
			c-0.011,0.043-0.022,0.087-0.034,0.131c-0.164,0.602-0.43,1.171-0.795,1.669l-0.303,0.327l-0.019,0.021l-1.887,2.042
			c-0.001,0.001-0.001,0.001-0.002,0.002l-0.629,0.68l-0.044,0.047l-1.694,1.833l-0.463,0.5l-0.231,0.25
			c-0.12,0.102-0.243,0.195-0.369,0.279c-0.517,0.278-1.12,0.241-1.61-0.098c-0.108-0.09-0.214-0.187-0.315-0.291l-0.197-0.259
			l-0.049-0.065l-0.121-0.16l-0.496-0.655l-0.928-1.225l-0.463-0.612l-3.395-4.481l-0.253-0.334l-0.487-0.643l-0.936-1.236
			l-0.23-0.303l-0.001,0.001l0,0c-0.349-0.461-0.757-0.823-1.197-1.084c-0.208-0.122-0.423-0.223-0.643-0.3
			c-0.272-0.095-0.55-0.156-0.831-0.182c-1.064-0.098-2.157,0.306-3.01,1.229C26.956,51.296,26.513,52.489,26.456,53.707z"/>
		
			<linearGradient id="XMLID_14_" gradientUnits="userSpaceOnUse" x1="-93.8943" y1="-362.1357" x2="-93.8943" y2="-357.4568" gradientTransform="matrix(-0.6712 -0.7413 -0.7413 0.6712 -296.2307 237.8001)">
			<stop  offset="0.3139" style="stop-color:#FFFFFF;stop-opacity:0"/>
			<stop  offset="1" style="stop-color:#272425"/>
		</linearGradient>
		<polygon id="XMLID_11_" class="st7" points="31.344,65.767 33.47,63.466 35.528,66.18 33.402,68.482 		"/>
		
			<linearGradient id="XMLID_16_" gradientUnits="userSpaceOnUse" x1="-92.922" y1="-373.4186" x2="-92.922" y2="-368.7398" gradientTransform="matrix(-0.6712 -0.7413 -0.7413 0.6712 -296.2307 237.8001)">
			<stop  offset="0.3139" style="stop-color:#FFFFFF;stop-opacity:0"/>
			<stop  offset="1" style="stop-color:#272425"/>
		</linearGradient>
		<polygon id="XMLID_10_" class="st8" points="38.763,57.739 40.888,55.437 42.946,58.153 40.82,60.454 		"/>
		
			<linearGradient id="XMLID_17_" gradientUnits="userSpaceOnUse" x1="7.5162" y1="154.9311" x2="9.9305" y2="157.3803" gradientTransform="matrix(1 0.0025 0.0025 -1 27.5779 218.5864)">
			<stop  offset="0.3139" style="stop-color:#FFFFFF;stop-opacity:0"/>
			<stop  offset="1" style="stop-color:#272425"/>
		</linearGradient>
		<polygon id="XMLID_9_" class="st9" points="36.479,60.209 38.537,62.925 37.112,64.486 35.055,61.771 		"/>
		
			<linearGradient id="XMLID_18_" gradientUnits="userSpaceOnUse" x1="3.4516" y1="158.396" x2="6.2184" y2="155.5359" gradientTransform="matrix(1 0.0025 0.0025 -1 27.5779 218.5864)">
			<stop  offset="0.3139" style="stop-color:#FFFFFF;stop-opacity:0"/>
			<stop  offset="1" style="stop-color:#272425"/>
		</linearGradient>
		<polygon id="XMLID_8_" class="st10" points="32.759,64.235 35.055,61.771 33.449,59.651 31.105,62.051 		"/>
		
			<linearGradient id="XMLID_19_" gradientUnits="userSpaceOnUse" x1="9.1316" y1="151.4098" x2="7.6869" y2="152.8545" gradientTransform="matrix(1 0.0025 0.0025 -1 27.5779 218.5864)">
			<stop  offset="0.3139" style="stop-color:#FFFFFF;stop-opacity:0"/>
			<stop  offset="1" style="stop-color:#272425"/>
		</linearGradient>
		<path id="XMLID_5_" class="st11" d="M34.816,66.951l2.295-2.464l0.831,1.201l-2.594,2.501
			C35.296,67.503,34.816,66.951,34.816,66.951z"/>
		
			<linearGradient id="XMLID_20_" gradientUnits="userSpaceOnUse" x1="-0.3569" y1="147.0326" x2="2.1824" y2="149.1968" gradientTransform="matrix(1 0.0025 0.0025 -1 27.5779 218.5864)">
			<stop  offset="0.3139" style="stop-color:#FFFFFF;stop-opacity:0"/>
			<stop  offset="1" style="stop-color:#272425"/>
		</linearGradient>
		<path id="XMLID_4_" class="st12" d="M29.065,68.24l2.069,2.714c-1.157,1.204-1.244,1.351-1.638,1.525
			c-0.788,0.347-1.889-3.571-1.889-3.571S28.385,69.088,29.065,68.24z"/>
	</g>
	<g id="XMLID_53_">
		<g id="XMLID_56_">
			<path id="XMLID_74_" class="st13" d="M6.6,78.77c-1.908,0-2.863,1.093-2.863,3.28v0.62h2.085c0.297,0,0.551,0.121,0.762,0.364
				C6.795,83.277,6.9,83.569,6.9,83.911c0,0.35-0.106,0.646-0.316,0.888c-0.211,0.243-0.465,0.364-0.762,0.364H3.737v8.946
				c0,0.167-0.028,0.326-0.083,0.477c-0.055,0.151-0.131,0.285-0.228,0.4s-0.211,0.205-0.342,0.268
				c-0.132,0.064-0.273,0.095-0.425,0.095c-0.152,0-0.294-0.032-0.425-0.095c-0.131-0.064-0.245-0.153-0.342-0.268
				c-0.097-0.115-0.173-0.248-0.229-0.4c-0.055-0.151-0.083-0.31-0.083-0.477v-8.946H1.082c-0.311,0-0.569-0.119-0.773-0.358
				c-0.204-0.239-0.306-0.537-0.306-0.895c0-0.358,0.102-0.654,0.306-0.889c0.204-0.234,0.461-0.352,0.773-0.352h0.498v-0.62
				c0-3.849,1.673-5.773,5.02-5.773c0.297,0,0.551,0.122,0.763,0.364c0.211,0.243,0.316,0.535,0.316,0.877
				c0,0.35-0.106,0.646-0.316,0.889C7.151,78.649,6.896,78.77,6.6,78.77z"/>
			<path id="XMLID_71_" class="st13" d="M17.905,94.109V93.87c-0.519,0.477-1.082,0.843-1.691,1.097
				c-0.609,0.254-1.259,0.382-1.95,0.382c-1.604,0-2.973-0.652-4.107-1.956c-1.134-1.304-1.701-2.878-1.701-4.723
				s0.567-3.419,1.701-4.723c1.134-1.304,2.503-1.956,4.107-1.956c1.59,0,2.959,0.652,4.107,1.956
				c1.134,1.304,1.701,2.879,1.701,4.723v5.439c0,0.342-0.106,0.635-0.316,0.877c-0.211,0.243-0.465,0.364-0.763,0.364
				c-0.304,0-0.562-0.121-0.772-0.364C18.01,94.744,17.905,94.451,17.905,94.109z M14.264,84.483c-0.512,0-0.989,0.112-1.431,0.334
				c-0.443,0.223-0.827,0.523-1.151,0.9c-0.325,0.378-0.583,0.821-0.772,1.33c-0.19,0.509-0.285,1.05-0.285,1.622
				s0.095,1.113,0.285,1.622c0.19,0.509,0.448,0.953,0.772,1.33c0.325,0.378,0.708,0.678,1.151,0.901
				c0.443,0.223,0.92,0.334,1.431,0.334c0.505,0,0.978-0.112,1.421-0.334c0.443-0.223,0.828-0.525,1.156-0.906
				c0.328-0.382,0.588-0.825,0.778-1.33s0.285-1.044,0.285-1.616s-0.095-1.111-0.285-1.616s-0.45-0.948-0.778-1.33
				c-0.329-0.382-0.714-0.684-1.156-0.906C15.242,84.595,14.768,84.483,14.264,84.483z"/>
			<path id="XMLID_69_" class="st13" d="M30.568,91.568c0.311,0,0.569,0.118,0.773,0.352c0.204,0.234,0.306,0.531,0.306,0.888
				c0,0.35-0.114,0.656-0.342,0.919c-1.072,1.082-2.334,1.622-3.786,1.622c-1.604,0-2.973-0.652-4.107-1.956
				c-1.134-1.304-1.701-2.878-1.701-4.723s0.567-3.419,1.701-4.723c1.134-1.304,2.503-1.956,4.107-1.956
				c1.459,0,2.721,0.541,3.786,1.622c0.249,0.254,0.373,0.569,0.373,0.943c0,0.358-0.102,0.656-0.306,0.895
				c-0.204,0.238-0.461,0.358-0.772,0.358c-0.263,0-0.498-0.095-0.706-0.286c-0.353-0.342-0.723-0.6-1.11-0.775
				c-0.387-0.175-0.809-0.262-1.265-0.262c-0.505,0-0.978,0.109-1.421,0.328c-0.443,0.219-0.83,0.517-1.162,0.895
				c-0.332,0.378-0.593,0.821-0.783,1.33c-0.19,0.509-0.285,1.054-0.285,1.635c0,0.58,0.095,1.126,0.285,1.634
				c0.19,0.509,0.451,0.953,0.783,1.33c0.332,0.378,0.719,0.676,1.162,0.895c0.443,0.219,0.916,0.328,1.421,0.328
				c0.457,0,0.878-0.085,1.265-0.256c0.387-0.171,0.754-0.427,1.099-0.77C30.077,91.664,30.305,91.577,30.568,91.568z"/>
			<path id="XMLID_66_" class="st13" d="M36.283,79.617c0,0.406-0.125,0.752-0.374,1.038c-0.249,0.286-0.55,0.429-0.902,0.429
				c-0.353,0-0.653-0.143-0.902-0.429c-0.249-0.286-0.374-0.632-0.374-1.038c0-0.406,0.125-0.751,0.374-1.037
				c0.249-0.286,0.55-0.429,0.902-0.429c0.353,0,0.654,0.143,0.902,0.429C36.158,78.865,36.283,79.211,36.283,79.617z
				 M33.929,94.097V83.243c0-0.349,0.106-0.646,0.316-0.888c0.211-0.242,0.465-0.364,0.762-0.364c0.298,0,0.551,0.121,0.763,0.364
				c0.211,0.243,0.32,0.539,0.327,0.888v10.855c-0.007,0.35-0.116,0.646-0.327,0.888c-0.211,0.243-0.465,0.364-0.763,0.364
				c-0.297,0-0.551-0.121-0.762-0.364C34.034,94.744,33.929,94.447,33.929,94.097z"/>
			<path id="XMLID_64_" class="st13" d="M38.223,94.109V77.517c0-0.349,0.102-0.646,0.305-0.888
				c0.204-0.243,0.461-0.364,0.773-0.364c0.311,0,0.569,0.121,0.773,0.364c0.204,0.242,0.305,0.539,0.305,0.888v15.339h0.498
				c0.297,0,0.551,0.122,0.763,0.364s0.316,0.539,0.316,0.888c0,0.342-0.105,0.635-0.316,0.877
				c-0.211,0.243-0.465,0.364-0.763,0.364H39.29c-0.297,0-0.55-0.121-0.757-0.364C38.326,94.744,38.223,94.451,38.223,94.109z"/>
			<path id="XMLID_59_" class="st13" d="M52.141,91.592c0.311,0,0.569,0.118,0.773,0.352c0.204,0.234,0.305,0.531,0.305,0.888
				c0,0.35-0.103,0.648-0.311,0.895c-1.072,1.082-2.337,1.622-3.796,1.622c-1.604,0-2.973-0.652-4.107-1.956
				c-1.134-1.304-1.701-2.878-1.701-4.723s0.567-3.419,1.701-4.723c1.134-1.304,2.503-1.956,4.107-1.956
				c1.591,0,2.96,0.652,4.107,1.956c0.567,0.644,0.992,1.362,1.276,2.153c0.284,0.791,0.425,1.648,0.425,2.57
				c0,0.358-0.106,0.654-0.316,0.888c-0.211,0.234-0.468,0.352-0.772,0.352h-8.214c0.118,0.438,0.29,0.837,0.518,1.199
				c0.228,0.362,0.496,0.672,0.804,0.93c0.308,0.258,0.646,0.459,1.016,0.602c0.37,0.143,0.756,0.215,1.156,0.215
				c0.457,0,0.875-0.079,1.255-0.239c0.38-0.158,0.733-0.397,1.058-0.715C51.633,91.703,51.871,91.6,52.141,91.592z M52.608,87.43
				c-0.118-0.438-0.292-0.837-0.524-1.199c-0.232-0.362-0.502-0.672-0.809-0.93c-0.308-0.258-0.647-0.459-1.017-0.603
				c-0.37-0.143-0.752-0.214-1.147-0.214c-0.394,0-0.778,0.072-1.151,0.214c-0.374,0.143-0.716,0.344-1.027,0.603
				c-0.311,0.258-0.581,0.569-0.809,0.93c-0.228,0.362-0.398,0.761-0.508,1.199H52.608z"/>
			<path id="XMLID_57_" class="st13" d="M58.696,88.992c-0.65-0.286-1.107-0.58-1.369-0.883h0.01
				c-0.525-0.612-0.788-1.332-0.788-2.159c0-0.604,0.14-1.151,0.42-1.64c0.28-0.489,0.645-0.905,1.094-1.247
				c0.45-0.342,0.956-0.606,1.52-0.793c0.563-0.187,1.129-0.28,1.696-0.28c1.728,0,3.211,0.799,4.449,2.397
				c0.145,0.207,0.218,0.458,0.218,0.752c0,0.358-0.102,0.654-0.306,0.888c-0.204,0.235-0.461,0.352-0.773,0.352
				c-0.222,0-0.409-0.071-0.565-0.215c-0.155-0.143-0.305-0.299-0.452-0.465c-0.705-0.811-1.563-1.217-2.572-1.217
				c-0.995,0-1.791,0.35-2.386,1.05c-0.11,0.127-0.166,0.302-0.166,0.525c0,0.223,0.09,0.374,0.27,0.453l4.853,1.837
				c0.678,0.302,1.134,0.597,1.369,0.883h-0.01c0.525,0.612,0.788,1.332,0.788,2.159c0,0.612-0.14,1.161-0.42,1.646
				c-0.28,0.485-0.645,0.901-1.094,1.246c-0.45,0.346-0.954,0.611-1.514,0.794c-0.559,0.183-1.124,0.274-1.69,0.274
				c-1.742,0-3.225-0.791-4.45-2.373C56.677,92.744,56.6,92.486,56.6,92.2c0-0.358,0.102-0.654,0.305-0.888
				c0.204-0.234,0.461-0.352,0.773-0.352c0.228,0,0.421,0.077,0.581,0.232c0.159,0.155,0.304,0.304,0.435,0.448
				c0.705,0.811,1.566,1.217,2.582,1.217c0.988,0,1.784-0.358,2.385-1.074c0.103-0.135,0.155-0.298,0.155-0.489
				c0-0.223-0.093-0.378-0.28-0.465L58.696,88.992z"/>
		</g>
	</g>
</g>
</svg>
