<?xml version="1.0" encoding="iso-8859-1"?>
<!-- Generator: Adobe Illustrator 18.0.0, SVG Export Plug-In . SVG Version: 6.00 Build 0)  -->
<!DOCTYPE svg PUBLIC "-//W3C//DTD SVG 1.1//EN" "http://www.w3.org/Graphics/SVG/1.1/DTD/svg11.dtd">
<svg version="1.1" id="Capa_1" xmlns="http://www.w3.org/2000/svg" xmlns:xlink="http://www.w3.org/1999/xlink" x="0px" y="0px"
	 viewBox="0 0 208.021 208.021" style="enable-background:new 0 0 208.021 208.021;" xml:space="preserve">
<path d="M17.566,208.021h118.803c2.689,0,5.221-1.025,7.145-2.893l43.747-40.331l0.185-0.178c1.941-1.939,3.01-4.518,3.01-7.262V0
	H17.566V208.021z M138.832,187.786v-27.014c0-0.525,0.425-0.954,0.946-0.954h28.966L138.832,187.786z M30.396,12.83h147.229v134.158
	h-37.848c-7.597,0-13.776,6.184-13.776,13.784v34.419H30.396V12.83z M126.597,122.572c0.543-1.233,2.995-4,4.809-6.045
	c6.419-7.241,16.12-18.185,16.12-34.925c0-23.729-19.306-43.035-43.036-43.035S61.454,57.873,61.454,81.603
	c0,16.74,9.701,27.684,16.12,34.925c1.813,2.045,4.266,4.812,4.809,6.045v24.093h8.947v6.902h26.32v-6.902h8.947V122.572z
	 M112.528,117.349H96.452c-1.438-3.749-4.383-7.084-7.653-10.772c-5.786-6.527-12.345-13.925-12.345-24.974
	c0-15.459,12.577-28.035,28.036-28.035s28.036,12.576,28.036,28.035c0,11.049-6.559,18.446-12.345,24.974
	C116.911,110.265,113.965,113.6,112.528,117.349z"/>
<g>
</g>
<g>
</g>
<g>
</g>
<g>
</g>
<g>
</g>
<g>
</g>
<g>
</g>
<g>
</g>
<g>
</g>
<g>
</g>
<g>
</g>
<g>
</g>
<g>
</g>
<g>
</g>
<g>
</g>
</svg>
