<?xml version="1.0" encoding="utf-8"?>
<!-- Generator: Adobe Illustrator 21.0.0, SVG Export Plug-In . SVG Version: 6.00 Build 0)  -->
<svg version="1.1" id="Layer_1" xmlns="http://www.w3.org/2000/svg" xmlns:xlink="http://www.w3.org/1999/xlink" x="0px" y="0px"
	 viewBox="0 0 453.6 86.1" style="enable-background:new 0 0 453.6 86.1;" xml:space="preserve">
<style type="text/css">
	.st0{fill:#FFFFFF;}
	.st1{fill:#2294D3;}
	.st2{opacity:0.5;fill:url(#SVGID_1_);enable-background:new    ;}
	.st3{opacity:0.5;fill:url(#SVGID_2_);enable-background:new    ;}
	.st4{opacity:0.5;}
	.st5{fill:url(#SVGID_3_);}
	.st6{fill:url(#SVGID_4_);}
	.st7{fill:#20AF59;}
	.st8{opacity:0.7;fill:url(#SVGID_5_);enable-background:new    ;}
	.st9{opacity:0.5;fill:url(#SVGID_6_);enable-background:new    ;}
	.st10{opacity:0.7;fill:url(#SVGID_7_);enable-background:new    ;}
	.st11{opacity:0.5;fill:url(#SVGID_8_);enable-background:new    ;}
	.st12{opacity:0.5;fill:url(#SVGID_9_);enable-background:new    ;}
	.st13{opacity:0.5;fill:url(#SVGID_10_);enable-background:new    ;}
</style>
<g>
	<path class="st0" d="M209.3,26.2c-7.9,0-11.8,3.9-11.8,11.7v2.2h8.6c1.2,0,2.3,0.4,3.1,1.3c0.9,0.9,1.3,1.9,1.3,3.1
		c0,1.3-0.4,2.3-1.3,3.2c-0.9,0.9-1.9,1.3-3.1,1.3h-8.6v32c0,0.6-0.1,1.2-0.3,1.7s-0.5,1-0.9,1.4s-0.9,0.7-1.4,1
		c-0.5,0.2-1.1,0.3-1.8,0.3c-0.6,0-1.2-0.1-1.7-0.3c-0.5-0.2-1-0.5-1.4-1c-0.4-0.4-0.7-0.9-0.9-1.4s-0.3-1.1-0.3-1.7V49h-2
		c-1.3,0-2.3-0.4-3.2-1.3c-0.8-0.9-1.3-1.9-1.3-3.2s0.4-2.3,1.3-3.2c0.8-0.8,1.9-1.3,3.2-1.3h2v-2c0-13.8,6.9-20.7,20.7-20.7
		c1.2,0,2.3,0.4,3.1,1.3c0.9,0.9,1.3,1.9,1.3,3.1c0,1.3-0.4,2.3-1.3,3.2C211.5,25.8,210.5,26.2,209.3,26.2z"/>
	<path class="st0" d="M255.8,81.1v-0.9c-2.1,1.7-4.5,3-7,3.9s-5.2,1.4-8,1.4c-6.6,0-12.2-2.3-16.9-7s-7-10.3-7-16.9s2.3-12.2,7-16.9
		s10.3-7,16.9-7c6.5,0,12.2,2.3,16.9,7s7,10.3,7,16.9v19.5c0,1.2-0.4,2.3-1.3,3.1c-0.9,0.9-1.9,1.3-3.1,1.3c-1.3,0-2.3-0.4-3.2-1.3
		C256.2,83.4,255.8,82.3,255.8,81.1z M240.8,46.7c-2.1,0-4.1,0.4-5.9,1.2c-1.8,0.8-3.4,1.9-4.7,3.2c-1.3,1.4-2.4,2.9-3.2,4.8
		c-0.8,1.8-1.2,3.8-1.2,5.8s0.4,4,1.2,5.8s1.8,3.4,3.2,4.8c1.3,1.4,2.9,2.4,4.7,3.2c1.8,0.8,3.8,1.2,5.9,1.2c2.1,0,4-0.4,5.8-1.2
		c1.8-0.8,3.4-1.9,4.8-3.2c1.4-1.4,2.4-3,3.2-4.8s1.2-3.7,1.2-5.8c0-2-0.4-4-1.2-5.8s-1.8-3.4-3.2-4.8c-1.4-1.4-2.9-2.4-4.8-3.2
		C244.8,47.1,242.9,46.7,240.8,46.7z"/>
	<path class="st0" d="M307.9,72c1.3,0,2.3,0.4,3.2,1.3c0.8,0.8,1.3,1.9,1.3,3.2c0,1.3-0.5,2.3-1.4,3.3c-4.4,3.9-9.6,5.8-15.6,5.8
		c-6.6,0-12.2-2.3-16.9-7c-4.7-4.7-7-10.3-7-16.9s2.3-12.2,7-16.9s10.3-7,16.9-7c6,0,11.2,1.9,15.6,5.8c1,0.9,1.5,2,1.5,3.4
		c0,1.3-0.4,2.3-1.3,3.2c-0.8,0.9-1.9,1.3-3.2,1.3c-1.1,0-2-0.3-2.9-1c-1.5-1.2-3-2.1-4.6-2.8c-1.6-0.6-3.3-0.9-5.2-0.9
		c-2.1,0-4,0.4-5.8,1.2s-3.4,1.8-4.8,3.2s-2.4,2.9-3.2,4.8c-0.8,1.8-1.2,3.8-1.2,5.8c0,2.1,0.4,4,1.2,5.8c0.8,1.8,1.9,3.4,3.2,4.8
		c1.4,1.4,3,2.4,4.8,3.2c1.8,0.8,3.8,1.2,5.8,1.2c1.9,0,3.6-0.3,5.2-0.9s3.1-1.5,4.5-2.8C305.8,72.4,306.8,72,307.9,72z"/>
	<path class="st0" d="M331.4,29.3c0,1.5-0.5,2.7-1.5,3.7s-2.3,1.5-3.7,1.5c-1.5,0-2.7-0.5-3.7-1.5s-1.5-2.3-1.5-3.7
		c0-1.5,0.5-2.7,1.5-3.7s2.3-1.5,3.7-1.5c1.5,0,2.7,0.5,3.7,1.5C330.9,26.6,331.4,27.8,331.4,29.3z M321.7,81.1V42.2
		c0-1.3,0.4-2.3,1.3-3.2s1.9-1.3,3.1-1.3s2.3,0.4,3.1,1.3c0.9,0.9,1.3,1.9,1.3,3.2V81c0,1.3-0.5,2.3-1.3,3.2
		c-0.9,0.9-1.9,1.3-3.1,1.3s-2.3-0.4-3.1-1.3C322.1,83.4,321.7,82.3,321.7,81.1z"/>
	<path class="st0" d="M339.4,81.1V21.8c0-1.3,0.4-2.3,1.3-3.2c0.8-0.9,1.9-1.3,3.2-1.3c1.3,0,2.3,0.4,3.2,1.3
		c0.8,0.9,1.3,1.9,1.3,3.2v54.9h2c1.2,0,2.3,0.4,3.1,1.3c0.9,0.9,1.3,1.9,1.3,3.2c0,1.2-0.4,2.3-1.3,3.1c-0.9,0.9-1.9,1.3-3.1,1.3
		h-6.5c-1.2,0-2.3-0.4-3.1-1.3C339.8,83.4,339.4,82.3,339.4,81.1z"/>
	<path class="st0" d="M396.6,72.1c1.3,0,2.3,0.4,3.2,1.3c0.8,0.8,1.3,1.9,1.3,3.2c0,1.3-0.4,2.3-1.3,3.2c-4.4,3.9-9.6,5.8-15.6,5.8
		c-6.6,0-12.2-2.3-16.9-7c-4.7-4.7-7-10.3-7-16.9s2.3-12.2,7-16.9s10.3-7,16.9-7c6.5,0,12.2,2.3,16.9,7c2.3,2.3,4.1,4.9,5.2,7.7
		c1.2,2.8,1.7,5.9,1.7,9.2c0,1.3-0.4,2.3-1.3,3.2c-0.9,0.8-1.9,1.3-3.2,1.3h-33.8c0.5,1.6,1.2,3,2.1,4.3s2,2.4,3.3,3.3
		s2.7,1.6,4.2,2.2c1.5,0.5,3.1,0.8,4.8,0.8c1.9,0,3.6-0.3,5.2-0.9s3-1.4,4.4-2.6C394.5,72.5,395.5,72.1,396.6,72.1z M398.5,57.2
		c-0.5-1.6-1.2-3-2.2-4.3s-2.1-2.4-3.3-3.3c-1.3-0.9-2.7-1.6-4.2-2.2c-1.5-0.5-3.1-0.8-4.7-0.8s-3.2,0.3-4.7,0.8s-2.9,1.2-4.2,2.2
		c-1.3,0.9-2.4,2-3.3,3.3s-1.6,2.7-2.1,4.3H398.5z"/>
	<path class="st0" d="M423.6,62.8c-2.7-1-4.6-2.1-5.6-3.2l0,0c-2.2-2.2-3.2-4.8-3.2-7.7c0-2.2,0.6-4.1,1.7-5.9
		c1.2-1.7,2.7-3.2,4.5-4.5c1.8-1.2,3.9-2.2,6.3-2.8c2.3-0.7,4.6-1,7-1c7.1,0,13.2,2.9,18.3,8.6c0.6,0.7,0.9,1.6,0.9,2.7
		c0,1.3-0.4,2.3-1.3,3.2c-0.8,0.8-1.9,1.3-3.2,1.3c-0.9,0-1.7-0.3-2.3-0.8c-0.6-0.5-1.3-1.1-1.9-1.7c-2.9-2.9-6.4-4.4-10.6-4.4
		c-4.1,0-7.4,1.3-9.8,3.8c-0.5,0.5-0.7,1.1-0.7,1.9c0,0.8,0.4,1.3,1.1,1.6l20,6.6c2.8,1.1,4.7,2.1,5.6,3.2l0,0
		c2.2,2.2,3.2,4.8,3.2,7.7c0,2.2-0.6,4.2-1.7,5.9c-1.2,1.7-2.7,3.2-4.5,4.5c-1.9,1.2-3.9,2.2-6.2,2.8c-2.3,0.7-4.6,1-7,1
		c-7.2,0-13.3-2.8-18.3-8.5c-0.6-0.8-0.9-1.7-0.9-2.8c0-1.3,0.4-2.3,1.3-3.2c0.8-0.8,1.9-1.3,3.2-1.3c0.9,0,1.7,0.3,2.4,0.8
		c0.7,0.6,1.3,1.1,1.8,1.6c2.9,2.9,6.4,4.4,10.6,4.4c4.1,0,7.3-1.3,9.8-3.8c0.4-0.5,0.6-1.1,0.6-1.7c0-0.8-0.4-1.4-1.2-1.7
		L423.6,62.8z"/>
</g>
<g>
	<g>
		<path class="st1" d="M54.9,17.8c0,1.2,0.1,2.4,0.3,3.6c0.2,1,0.4,1.9,0.8,2.8c0.7,2,1.8,3.8,3.3,5.5l0,0l0,0l1,1.1l4,4.4l2.1,2.3
			l1.1,1.2l16.4,18.1l3.9,4.4l2.1,2.3l0.7,0.8l0,0l0.1,0.1c1.2,1.8,2,3.8,2.5,5.8c0,0.2,0.1,0.3,0.1,0.5s0.1,0.4,0.1,0.6
			c0.8,5.2-0.8,10.7-4.8,14.7c4.3,0.2,8.7-1.3,12.2-4.4c3.6-3.3,5.5-7.8,5.6-12.3c0-1.2-0.1-2.4-0.3-3.6c-0.2-1-0.4-1.9-0.8-2.8
			c-0.7-2-1.8-3.8-3.3-5.5l0,0l0,0l-1-1.1L98,53l-2-2.3l-1.1-1.2L78.5,31.3L74.6,27l-2.1-2.3l-1.7-1.9l0,0l-0.1-0.1
			c-1.2-1.8-2-3.8-2.5-5.8c0-0.2-0.1-0.3-0.1-0.5S68,16,68,15.8c-0.8-5.2,0.8-10.7,4.8-14.7C68.4,0.9,64,2.4,60.5,5.5
			C56.9,8.8,55,13.3,54.9,17.8z"/>
	</g>
	
		<linearGradient id="SVGID_1_" gradientUnits="userSpaceOnUse" x1="-122.3872" y1="467.244" x2="-88.6429" y2="467.244" gradientTransform="matrix(-0.6712 -0.7413 -0.7413 0.6712 348.6214 -368.9271)">
		<stop  offset="0.3139" style="stop-color:#FFFFFF;stop-opacity:0"/>
		<stop  offset="1" style="stop-color:#231F20"/>
	</linearGradient>
	<path class="st2" d="M55,16.2c-0.1,0.5-0.1,1-0.1,1.5c0,1.2,0.1,2.4,0.3,3.6c0.2,1,0.4,1.9,0.8,2.8c0.7,2,1.8,3.8,3.3,5.4l0,0l0,0
		l1,1.1l4,4.4l2.1,2.3l1.1,1.2l3.1,3.4l9.7-8.8l-1.7-1.9l-3.9-4.4l-2.1-2.3l-1.7-1.9l0,0l-0.1-0.1c-1.2-1.8-2-3.8-2.5-5.8
		c0-0.2-0.1-0.3-0.1-0.5c0-0.2-0.1-0.4-0.1-0.6c-0.1-0.8-0.2-1.7-0.2-2.5c0-4.4,1.6-8.8,5-12.2C68.4,0.7,64,2.2,60.5,5.3
		C57.2,8.3,55.4,12.1,55,16.2z"/>
	<path class="st1" d="M0,20.4c0,1.2,0.1,2.4,0.3,3.6c0.2,1,0.4,1.9,0.8,2.8c0.7,2,1.8,3.8,3.3,5.4l0,0l0,0l1,1.1l4,4.4l2.1,2.3
		l1.1,1.2l1.7,1.8l1.7,1.9l2.1,2.3l4,4.4l8.1,8.9l4,4.4l2.1,2.3l1.7,1.9l1.7,1.8l1.1,1.2l2.1,2.3l4,4.4l1,1.1
		c0.5,0.6,1.1,1.1,1.7,1.6c0,0,0.1,0,0.1,0.1c0.2,0.1,0.3,0.3,0.5,0.4l0.1,0.1c0.2,0.1,0.3,0.2,0.5,0.4c0.1,0,0.1,0.1,0.2,0.1
		c0.2,0.1,0.3,0.2,0.5,0.3c0.1,0,0.1,0.1,0.2,0.1c0.2,0.1,0.3,0.2,0.5,0.3c0.1,0,0.2,0.1,0.2,0.1c0.2,0.1,0.3,0.2,0.5,0.3
		c0,0,0,0,0.1,0s0.1,0.1,0.2,0.1c0.1,0.1,0.3,0.1,0.4,0.2c0.1,0,0.1,0,0.2,0.1c0.3,0.1,0.6,0.2,0.9,0.4c0.1,0,0.2,0.1,0.3,0.1
		s0.3,0.1,0.4,0.1c0.1,0,0.2,0.1,0.2,0.1h0.1c0.2,0.1,0.4,0.1,0.6,0.2c0.1,0,0.2,0,0.3,0.1c0.2,0,0.4,0.1,0.6,0.1
		c0.1,0,0.2,0,0.3,0.1c0.2,0,0.4,0.1,0.6,0.1c0.1,0,0.2,0,0.3,0c0.2,0,0.4,0,0.6,0.1c0.1,0,0.2,0,0.3,0l0,0c0.1,0,0.3,0,0.4,0
		c0.1,0,0.3,0,0.4,0l0,0c0.1,0,0.2,0,0.3,0c0.2,0,0.4,0,0.6,0c0.1,0,0.2,0,0.3,0c0.2,0,0.4,0,0.6,0c0.1,0,0.2,0,0.3,0
		c0.2,0,0.4,0,0.6-0.1c0.1,0,0.2,0,0.3,0c0.2,0,0.4-0.1,0.6-0.1h0.1c0.1,0,0.2,0,0.2-0.1c0.1,0,0.3-0.1,0.4-0.1s0.2-0.1,0.3-0.1
		c0.3-0.1,0.6-0.2,0.9-0.3c0.1,0,0.2,0,0.2-0.1c0.2-0.1,0.3-0.1,0.5-0.2c0.1,0,0.2-0.1,0.2-0.1s0,0,0.1,0c0.2-0.1,0.3-0.1,0.5-0.2
		c0.1,0,0.2-0.1,0.2-0.1c0.2-0.1,0.3-0.2,0.5-0.2c0.1,0,0.1-0.1,0.2-0.1c0.2-0.1,0.3-0.2,0.5-0.3c0.1,0,0.1-0.1,0.2-0.1
		c0.2-0.1,0.4-0.2,0.5-0.3c0.1,0,0.1-0.1,0.2-0.1c0.2-0.1,0.4-0.2,0.6-0.4c0,0,0.1,0,0.1-0.1c0.6-0.4,1.3-0.9,1.9-1.5l1.1-1l4.4-4
		l2.3-2.1l1.2-1.1l17.6-16l8.1-7.3l25.5-23.1l2-1.8c0.1-0.1,0.3-0.2,0.4-0.3l6.4-5.8l1.6-1.4l0.2-0.2l1.2-1.1c1.9-1.4,4-2.3,6.2-2.8
		c0.2,0,0.3-0.1,0.5-0.1s0.4-0.1,0.6-0.1c0.7-0.1,1.5-0.2,2.2-0.2c0.6-4.5-0.6-9.1-3.6-12.9c-0.2,0-0.4,0-0.6,0
		c-1.2,0-2.4,0.1-3.6,0.3c-1,0.2-1.9,0.4-2.8,0.8c-2,0.7-3.8,1.8-5.5,3.3l0,0l0,0l-1.1,1l-1.9,1.7l-2,1.8c-0.1,0.1-0.3,0.2-0.4,0.3
		l-8,7.2l-0.2,0.2L97.7,40.1l-8.1,7.3L68.2,66.9L65.9,69l-0.5,0.5c-0.1,0-0.1,0.1-0.2,0.1c-0.3,0.2-0.6,0.4-1,0.6
		c-2.5,1.4-5.5,1.2-7.8-0.4c-0.3-0.3-0.7-0.5-1-0.8c0,0,0,0-0.1,0l-0.6-0.7l-2-2.2l-5.2-5.7l-7.3-8L40,52.2l-8.8-9.7L31,42.3l-7.3-8
		l-5.2-5.7L16,25.7c-1.4-1.9-2.3-4-2.8-6.2c0-0.2-0.1-0.3-0.1-0.5S13,18.6,13,18.4c-0.8-5.2,0.8-10.7,4.8-14.7
		C13.5,3.5,9.1,4.9,5.6,8.1C2,11.4,0.1,15.8,0,20.4z"/>
	
		<linearGradient id="SVGID_2_" gradientUnits="userSpaceOnUse" x1="-143.194" y1="444.1488" x2="-143.194" y2="394.4569" gradientTransform="matrix(-0.6712 -0.7413 -0.7413 0.6712 348.6214 -368.9271)">
		<stop  offset="0.3139" style="stop-color:#FFFFFF;stop-opacity:0"/>
		<stop  offset="1" style="stop-color:#231F20"/>
	</linearGradient>
	<path class="st3" d="M128.8,23.8l2.1,2.3l0.5,0.6l0.2,0.2l0.3-0.3l2-1.8c0.1-0.1,0.3-0.2,0.4-0.3l6.4-5.8l1.6-1.4l0.2-0.2l1.2-1.1
		c1.9-1.4,4-2.3,6.2-2.8c0.2,0,0.3-0.1,0.5-0.1s0.4-0.1,0.6-0.1c0.7-0.1,1.5-0.2,2.2-0.2c0.6-4.5-0.6-9.1-3.6-12.9
		c-0.2,0-0.4,0-0.6,0c-1.2,0-2.4,0.1-3.6,0.3c-1,0.2-1.9,0.4-2.8,0.8c-2,0.7-3.8,1.8-5.5,3.3l0,0l0,0l-1.1,1L134.1,7l-2,1.8
		c-0.1,0.1-0.3,0.2-0.4,0.3l-8,7.2l-0.2,0.2l-0.7,0.6l2,2.2L128.8,23.8z"/>
	<g class="st4">
		
			<linearGradient id="SVGID_3_" gradientUnits="userSpaceOnUse" x1="-139.3031" y1="483.5226" x2="-164.3303" y2="483.5226" gradientTransform="matrix(-0.6712 -0.7413 -0.7413 0.6712 348.6214 -368.9271)">
			<stop  offset="0.3139" style="stop-color:#FFFFFF;stop-opacity:0"/>
			<stop  offset="1" style="stop-color:#231F20"/>
		</linearGradient>
		<path class="st5" d="M83.8,56.8l3.9,4.4l2.1,2.3l0.7,0.8l0,0l0.1,0.1c1.2,1.8,2,3.8,2.5,5.8c0,0.2,0.1,0.3,0.1,0.5
			s0.1,0.4,0.1,0.6c0.1,0.8,0.2,1.6,0.2,2.4c0.1,4.5-1.6,8.9-5,12.3c4.3,0.2,8.7-1.2,12.2-4.4c0,0,0,0,0.1-0.1
			c3.6-3.3,5.5-7.8,5.6-12.3c0-1.2-0.1-2.4-0.3-3.6c-0.2-1-0.4-1.9-0.8-2.8c-0.7-2-1.8-3.8-3.3-5.5l0,0l0,0l-1-1.1l-3-3.3l-2-2.2
			l-1.1-1.2l-5.6-6.1l-9.7,8.8L83.8,56.8z"/>
	</g>
	<g class="st4">
		
			<linearGradient id="SVGID_4_" gradientUnits="userSpaceOnUse" x1="4457.7471" y1="-2265.7493" x2="4428.4722" y2="-2265.7493" gradientTransform="matrix(0.6712 0.7413 0.7413 -0.6712 -1286.5106 -4791.0742)">
			<stop  offset="0.3139" style="stop-color:#FFFFFF;stop-opacity:0"/>
			<stop  offset="0.3336" style="stop-color:#F3F3F3;stop-opacity:2.868527e-02"/>
			<stop  offset="0.4334" style="stop-color:#BDBCBC;stop-opacity:0.1742"/>
			<stop  offset="0.5338" style="stop-color:#8E8C8C;stop-opacity:0.3204"/>
			<stop  offset="0.6326" style="stop-color:#676565;stop-opacity:0.4645"/>
			<stop  offset="0.7297" style="stop-color:#494647;stop-opacity:0.606"/>
			<stop  offset="0.8244" style="stop-color:#343031;stop-opacity:0.744"/>
			<stop  offset="0.9157" style="stop-color:#272324;stop-opacity:0.8772"/>
			<stop  offset="1" style="stop-color:#231F20"/>
		</linearGradient>
		<path class="st6" d="M23.6,33.9l-3.9-4.4l-2.1-2.3l-1.7-1.9l0,0l-0.1-0.1c-1.2-1.8-2-3.8-2.5-5.8c0-0.2-0.1-0.3-0.1-0.5
			s-0.1-0.4-0.1-0.6c-0.1-0.8-0.2-1.6-0.2-2.4c-0.1-4.5,1.6-8.9,5-12.3C13.5,3.5,9.2,4.9,5.7,8c0,0,0,0-0.1,0.1
			C2,11.4,0.1,15.8,0,20.4c0,1.2,0.1,2.4,0.3,3.6c0.2,1,0.4,1.9,0.8,2.8c0.7,2,1.8,3.8,3.3,5.4l0,0l0,0l1,1.1l4,4.4l2.1,2.3l1.1,1.2
			l5.6,6.1l9.7-8.8L23.6,33.9z"/>
	</g>
	<g>
		<path class="st7" d="M0,19.7c4.4-3.5,10-4.6,15.1-3.3c0.2,0,0.4,0.1,0.6,0.1c0.2,0,0.3,0.1,0.5,0.1c2.1,0.7,4.2,1.8,5.9,3.4
			l2.7,2.9l19.4,21.4c0,0.1,0.1,0.1,0.1,0.2l0,0l1.7,1.9l2.1,2.3l3.9,4.4l17.5,19.4l1.1,1.2l2.1,2.3l3,3.3l1,1.1l0,0l0,0
			c1.5,1.6,3.2,2.9,5.1,3.9c0.9,0.4,1.8,0.8,2.7,1.1c1.2,0.3,2.3,0.6,3.5,0.7c4.5,0.3,9.2-1.1,12.8-4.4c3.5-3.1,5.4-7.4,5.6-11.7
			c-4.4,3.5-10,4.6-15.1,3.3c-0.2,0-0.4-0.1-0.6-0.2c-0.2,0-0.3-0.1-0.5-0.1c-2.1-0.7-4.2-1.8-5.9-3.4l-1.7-1.9L63.4,46.3
			c0-0.1-0.1-0.1-0.1-0.2l0,0l-1.7-1.9l-2.1-2.3l-3.9-4.4L37.9,18.2L36.8,17l-2.1-2.3l-4-4.4l-1-1.1l0,0l0,0
			c-1.5-1.6-3.2-2.9-5.1-3.9c-0.9-0.4-1.8-0.8-2.7-1.1c-1.2-0.3-2.3-0.6-3.5-0.6C13.9,3.3,9.3,4.7,5.6,8C2.2,11.1,0.3,15.4,0,19.7z"
			/>
	</g>
	<path class="st7" d="M54.9,17c4.4-3.5,10-4.6,15.1-3.3c0.2,0,0.4,0.1,0.6,0.2c0.2,0,0.3,0.1,0.5,0.1c2.1,0.7,4.1,1.8,5.8,3.3
		l1.6,1.7l2.1,2.3l4,4.4l13.1,14.4l3.3,3.7l1,1.2l2.1,2.3l2.3,2.5l1.7,1.9l1,1.1c0.5,0.6,1.1,1.1,1.7,1.6c0,0,0.1,0,0.1,0.1
		c0.2,0.1,0.3,0.3,0.5,0.4l0.1,0.1c0.2,0.1,0.3,0.2,0.5,0.4c0.1,0,0.1,0.1,0.2,0.1c0.2,0.1,0.3,0.2,0.5,0.3c0.1,0,0.1,0.1,0.2,0.1
		c0.2,0.1,0.3,0.2,0.5,0.3c0.1,0,0.2,0.1,0.2,0.1c0.2,0.1,0.3,0.2,0.5,0.3c0,0,0,0,0.1,0s0.2,0.1,0.2,0.1c0.1,0.1,0.3,0.1,0.4,0.2
		c0.1,0,0.2,0.1,0.2,0.1c0.3,0.1,0.6,0.2,0.8,0.3c0.1,0,0.2,0.1,0.3,0.1c0.1,0,0.3,0.1,0.4,0.1s0.2,0.1,0.2,0.1h0.1
		c0.2,0.1,0.4,0.1,0.6,0.2c0.1,0,0.2,0,0.3,0.1c0.2,0,0.4,0.1,0.6,0.1c0.1,0,0.2,0,0.3,0.1c0.2,0,0.4,0.1,0.6,0.1c0.1,0,0.2,0,0.3,0
		c0.2,0,0.4,0,0.6,0.1c0.1,0,0.2,0,0.3,0l0,0c0.1,0,0.3,0,0.4,0s0.3,0,0.4,0l0,0c0.1,0,0.2,0,0.3,0c0.2,0,0.4,0,0.6,0
		c0.1,0,0.2,0,0.3,0c0.2,0,0.4,0,0.6,0c0.1,0,0.2,0,0.3,0c0.2,0,0.4,0,0.6-0.1c0.1,0,0.2,0,0.3,0c0.2,0,0.4-0.1,0.6-0.1h0.1
		c0.1,0,0.1,0,0.2,0c0.2,0,0.3-0.1,0.5-0.1c0.1,0,0.2,0,0.3-0.1c0.6-0.1,1.1-0.3,1.7-0.5c0.1,0,0.1-0.1,0.2-0.1c0,0,0,0,0.1,0
		c0.2-0.1,0.3-0.1,0.5-0.2c0.1,0,0.2-0.1,0.2-0.1c0.2-0.1,0.4-0.2,0.5-0.2s0.1-0.1,0.2-0.1c0.2-0.1,0.4-0.2,0.5-0.3
		c0.1,0,0.1-0.1,0.2-0.1c0.2-0.1,0.4-0.2,0.6-0.3c0,0,0.1,0,0.1-0.1c0.2-0.1,0.4-0.2,0.6-0.4l0,0c0.7-0.4,1.3-0.9,1.9-1.5l0,0l1.1-1
		l4.4-4l2.3-2l1.2-1.1l3-2.7l3.2-2.9l1.1-1l0.8-0.7L151,38l0.8-0.8l0.3-0.3l0.4-0.4l1.1-1l0.7-0.7l2.5-2.3l1.9-1.7l1.1-1l0,0
		c1.6-1.5,2.9-3.2,3.9-5.1c0.4-0.9,0.8-1.8,1.1-2.7c0.3-1.2,0.6-2.3,0.7-3.5c0-0.2,0-0.4,0-0.6c0.2-4.3-1.3-8.7-4.4-12.2
		c-3.1-3.5-7.4-5.3-11.7-5.6c3,3.7,4.2,8.4,3.6,12.9c-0.1,0.7-0.2,1.5-0.4,2.2c0,0.2-0.1,0.4-0.2,0.6c0,0.2-0.1,0.3-0.1,0.5
		c-0.7,2.1-1.8,4.2-3.4,5.9l-1.3,1.2l-0.1,0.1l-8,7.3l0,0L137,33l-0.2,0.2l-7.2,6.5l-2,1.8l-1,0.9c-0.5,0.4-1,0.7-1.6,1
		c-2.2,1-4.8,0.9-6.8-0.4c-0.5-0.3-0.9-0.7-1.3-1l-0.9-1l-0.2-0.2l-0.5-0.6l-2.1-2.3l-4-4.4l-2-2.2L92.8,15.4l-1.1-1.2l-2.1-2.3
		l-4-4.4l-1-1.1l0,0l0,0c-1.5-1.6-3.2-2.9-5.1-3.9c-0.9-0.4-1.8-0.8-2.7-1.1c-1.2-0.3-2.3-0.6-3.5-0.6C68.8,0.5,64.2,2,60.5,5.3
		C57.1,8.4,55.2,12.7,54.9,17z"/>
	
		<linearGradient id="SVGID_5_" gradientUnits="userSpaceOnUse" x1="-141.2483" y1="475.3164" x2="-141.2483" y2="492.0218" gradientTransform="matrix(-0.6712 -0.7413 -0.7413 0.6712 348.6214 -368.9271)">
		<stop  offset="0.3139" style="stop-color:#FFFFFF;stop-opacity:0"/>
		<stop  offset="1" style="stop-color:#231F20"/>
	</linearGradient>
	<polygon class="st8" points="75.7,59.9 84.8,51.7 93.5,61.4 84.5,69.6 	"/>
	
		<linearGradient id="SVGID_6_" gradientUnits="userSpaceOnUse" x1="-141.2752" y1="431.3302" x2="-141.2752" y2="448.0337" gradientTransform="matrix(-0.6712 -0.7413 -0.7413 0.6712 348.6214 -368.9271)">
		<stop  offset="0.3139" style="stop-color:#FFFFFF;stop-opacity:0"/>
		<stop  offset="1" style="stop-color:#231F20"/>
	</linearGradient>
	<polygon class="st9" points="107.3,31.4 116.3,23.2 125.1,32.8 116.1,41 	"/>
	
		<linearGradient id="SVGID_7_" gradientUnits="userSpaceOnUse" x1="67.5907" y1="105.2815" x2="75.8957" y2="113.7064" gradientTransform="matrix(1 2.500000e-03 2.500000e-03 -1 26.5378 157.4131)">
		<stop  offset="0.3139" style="stop-color:#FFFFFF;stop-opacity:0"/>
		<stop  offset="1" style="stop-color:#231F20"/>
	</linearGradient>
	<polygon class="st10" points="97.6,40.1 106.3,49.8 100.3,55.4 91.5,45.7 	"/>
	
		<linearGradient id="SVGID_8_" gradientUnits="userSpaceOnUse" x1="49.7814" y1="118.0812" x2="60.4958" y2="107.0057" gradientTransform="matrix(1 2.500000e-03 2.500000e-03 -1 26.5378 157.4131)">
		<stop  offset="0.3139" style="stop-color:#FFFFFF;stop-opacity:0"/>
		<stop  offset="1" style="stop-color:#231F20"/>
	</linearGradient>
	<polygon class="st11" points="81.8,54.5 91.5,45.7 84.7,38.2 74.7,46.7 	"/>
	
		<linearGradient id="SVGID_9_" gradientUnits="userSpaceOnUse" x1="73.6936" y1="91.767" x2="67.4704" y2="97.9902" gradientTransform="matrix(1 2.500000e-03 2.500000e-03 -1 26.5378 157.4131)">
		<stop  offset="0.3139" style="stop-color:#FFFFFF;stop-opacity:0"/>
		<stop  offset="1" style="stop-color:#231F20"/>
	</linearGradient>
	<path class="st12" d="M90.5,64.1l9.8-8.8l3.5,4.3l-11,8.9C92.6,66.1,90.5,64.1,90.5,64.1z"/>
	
		<linearGradient id="SVGID_10_" gradientUnits="userSpaceOnUse" x1="33.8234" y1="76.9685" x2="43.3644" y2="85.1004" gradientTransform="matrix(1 2.500000e-03 2.500000e-03 -1 26.5378 157.4131)">
		<stop  offset="0.3139" style="stop-color:#FFFFFF;stop-opacity:0"/>
		<stop  offset="1" style="stop-color:#231F20"/>
	</linearGradient>
	<path class="st13" d="M66,68.7l8.8,9.7c-4.9,4.3-5.3,4.8-7,5.4c-3.4,1.2-8-12.7-8-12.7S63.1,71.7,66,68.7z"/>
</g>
</svg>
