<?xml version="1.0" encoding="utf-8"?>
<!-- Generator: Adobe Illustrator 19.0.0, SVG Export Plug-In . SVG Version: 6.00 Build 0)  -->
<svg version="1.1" id="Camada_1" xmlns="http://www.w3.org/2000/svg" xmlns:xlink="http://www.w3.org/1999/xlink" x="0px" y="0px"
	 viewBox="-54 -19 90 180" style="enable-background:new -54 -19 90 180;" xml:space="preserve">
<style type="text/css">
	.st0{fill:#5892CF;}
	.st1{opacity:0.5;fill:url(#XMLID_11_);enable-background:new    ;}
	.st2{opacity:0.5;fill:url(#XMLID_12_);enable-background:new    ;}
	.st3{opacity:0.5;}
	.st4{fill:url(#XMLID_14_);}
	.st5{fill:url(#XMLID_15_);}
	.st6{fill:#66AC5F;}
	.st7{opacity:0.7;fill:url(#XMLID_17_);enable-background:new    ;}
	.st8{opacity:0.5;fill:url(#XMLID_18_);enable-background:new    ;}
	.st9{opacity:0.7;fill:url(#XMLID_23_);enable-background:new    ;}
	.st10{opacity:0.5;fill:url(#XMLID_24_);enable-background:new    ;}
	.st11{opacity:0.5;fill:url(#XMLID_25_);enable-background:new    ;}
	.st12{opacity:0.5;fill:url(#XMLID_26_);enable-background:new    ;}
</style>
<g id="XMLID_2_">
	<g id="XMLID_22_">
		<path id="XMLID_41_" class="st0" d="M-20.084,60.073c-0.011,0.519,0.028,1.04,0.117,1.553c0.073,0.415,0.177,0.826,0.315,1.225
			c0.294,0.847,0.734,1.649,1.325,2.361l0,0l-0.001,0.001l0.389,0.469l1.583,1.906l0.825,0.994l0.427,0.514l6.524,7.855l1.569,1.89
			l0.838,1.01l0.295,0.359l0.001-0.002c0.013,0.015,0.027,0.028,0.039,0.043c0.48,0.781,0.809,1.636,0.986,2.519
			c0.014,0.069,0.028,0.138,0.039,0.207c0.014,0.082,0.027,0.163,0.038,0.245c0.323,2.262-0.32,4.647-1.895,6.371
			c1.724,0.082,3.476-0.55,4.856-1.911c1.442-1.423,2.194-3.369,2.234-5.334c0.01-0.519-0.028-1.039-0.118-1.553
			c-0.073-0.415-0.177-0.826-0.315-1.225c-0.293-0.846-0.733-1.65-1.324-2.361l0,0l0.002-0.002l-0.389-0.468l-1.196-1.443
			l-0.825-0.993l-0.428-0.515l-6.522-7.855l-1.569-1.891l-0.839-1.009l-0.682-0.821l-0.002,0.002
			c-0.013-0.016-0.026-0.029-0.039-0.043c-0.48-0.781-0.81-1.636-0.988-2.519c-0.013-0.068-0.027-0.138-0.039-0.207
			c-0.014-0.081-0.027-0.163-0.038-0.244c-0.323-2.263,0.32-4.647,1.895-6.372c-1.724-0.081-3.477,0.55-4.857,1.91
			C-19.292,56.164-20.045,58.107-20.084,60.073z"/>
	</g>
	
		<linearGradient id="XMLID_11_" gradientUnits="userSpaceOnUse" x1="-142.4184" y1="-447.4102" x2="-128.0285" y2="-447.4102" gradientTransform="matrix(-0.6712 -0.7413 -0.7413 0.6712 -435.1861 262.4441)">
		<stop  offset="0.3139" style="stop-color:#FFFFFF;stop-opacity:0"/>
		<stop  offset="1" style="stop-color:#272425"/>
	</linearGradient>
	<path id="XMLID_21_" class="st1" d="M-20.06,59.352c-0.022,0.213-0.037,0.426-0.039,0.64c-0.011,0.519,0.028,1.04,0.117,1.553
		c0.073,0.415,0.179,0.826,0.316,1.225c0.292,0.847,0.733,1.649,1.324,2.361l0,0l-0.002,0.003l0.389,0.468l1.583,1.906l0.825,0.993
		l0.427,0.515l1.214,1.461l3.867-3.818l-0.669-0.805l-1.569-1.891l-0.838-1.009l-0.682-0.821l-0.002,0.001
		c-0.013-0.015-0.027-0.028-0.039-0.043c-0.48-0.781-0.81-1.636-0.988-2.519c-0.013-0.071-0.027-0.14-0.038-0.208
		c-0.015-0.081-0.028-0.163-0.038-0.244c-0.051-0.363-0.076-0.729-0.078-1.094c-0.012-1.916,0.651-3.83,1.973-5.277
		c-1.724-0.082-3.477,0.548-4.857,1.911C-19.151,55.928-19.886,57.611-20.06,59.352z"/>
	<path id="XMLID_20_" class="st0" d="M-41.901,61.183c-0.011,0.519,0.028,1.04,0.118,1.552c0.073,0.415,0.178,0.826,0.316,1.225
		c0.292,0.848,0.733,1.65,1.323,2.361l0.001,0.002l-0.002,0.001l0.389,0.468l1.583,1.906l0.825,0.993l0.426,0.515l0.665,0.8
		l0.682,0.821l0.838,1.01l1.57,1.89l3.212,3.867l1.57,1.89l0.838,1.008l0.682,0.822l0.665,0.8l0.428,0.515l0.824,0.993l1.583,1.906
		l0.389,0.469c0.215,0.26,0.444,0.495,0.682,0.714c0.011,0.008,0.021,0.019,0.031,0.028c0.068,0.061,0.138,0.121,0.208,0.179
		c0.018,0.016,0.038,0.031,0.055,0.046c0.067,0.053,0.133,0.105,0.201,0.157c0.023,0.018,0.047,0.035,0.071,0.053
		c0.065,0.048,0.13,0.094,0.196,0.139c0.028,0.018,0.054,0.036,0.082,0.055c0.065,0.042,0.129,0.083,0.194,0.123
		c0.03,0.018,0.062,0.036,0.092,0.053c0.063,0.038,0.128,0.075,0.193,0.11c0.006,0.004,0.013,0.008,0.021,0.012
		c0.029,0.016,0.058,0.03,0.088,0.044c0.058,0.032,0.117,0.062,0.175,0.09c0.024,0.012,0.048,0.022,0.073,0.033
		c0.12,0.056,0.24,0.108,0.363,0.155c0.043,0.017,0.086,0.035,0.129,0.051c0.053,0.02,0.108,0.038,0.163,0.056
		c0.033,0.012,0.064,0.023,0.096,0.034c0.013,0.005,0.025,0.008,0.037,0.011c0.078,0.024,0.155,0.045,0.232,0.068
		c0.038,0.009,0.073,0.021,0.11,0.03c0.078,0.02,0.154,0.037,0.231,0.053c0.038,0.008,0.076,0.017,0.113,0.024
		c0.077,0.016,0.154,0.028,0.231,0.039c0.039,0.006,0.078,0.013,0.117,0.019c0.078,0.01,0.154,0.018,0.231,0.026
		c0.034,0.003,0.068,0.009,0.102,0.012c0.005,0.001,0.011,0,0.017,0.001c0.057,0.005,0.113,0.007,0.17,0.009
		c0.057,0.003,0.113,0.008,0.171,0.009c0.005,0,0.01,0.001,0.015,0.002c0.036,0,0.069-0.002,0.103-0.001
		c0.078,0,0.155,0.002,0.233-0.002c0.039-0.002,0.078-0.004,0.118-0.006c0.078-0.003,0.156-0.008,0.234-0.015
		c0.038-0.003,0.077-0.008,0.115-0.012c0.078-0.008,0.158-0.017,0.235-0.028c0.037-0.005,0.074-0.012,0.112-0.017
		c0.079-0.013,0.159-0.027,0.238-0.043c0.012-0.002,0.025-0.003,0.038-0.006c0.033-0.008,0.066-0.016,0.099-0.023
		c0.055-0.013,0.111-0.024,0.167-0.039c0.046-0.011,0.091-0.024,0.136-0.036c0.119-0.033,0.237-0.069,0.355-0.11
		c0.03-0.01,0.062-0.019,0.092-0.03c0.062-0.022,0.122-0.046,0.182-0.07c0.031-0.013,0.062-0.023,0.093-0.036
		c0.008-0.003,0.014-0.007,0.022-0.009c0.068-0.028,0.133-0.058,0.201-0.088c0.033-0.014,0.064-0.029,0.096-0.044
		c0.069-0.033,0.137-0.067,0.204-0.102c0.029-0.015,0.058-0.03,0.088-0.046c0.07-0.038,0.139-0.077,0.207-0.117
		c0.026-0.014,0.051-0.03,0.076-0.046c0.072-0.043,0.142-0.087,0.213-0.133c0.021-0.013,0.04-0.028,0.061-0.041
		c0.074-0.051,0.149-0.101,0.222-0.156c0.012-0.008,0.023-0.017,0.034-0.025c0.257-0.191,0.506-0.401,0.744-0.635l0.429-0.424
		l1.748-1.726l0.911-0.899l0.472-0.466l7.004-6.914l3.213-3.172l10.132-10.002l0.809-0.799c0.058-0.048,0.116-0.096,0.17-0.15
		l2.536-2.504l0.628-0.62l0.074-0.073l0.47-0.464c0.763-0.595,1.608-0.995,2.484-1.205c0.063-0.015,0.126-0.029,0.189-0.042
		c0.075-0.017,0.15-0.03,0.224-0.043c0.29-0.049,0.586-0.076,0.879-0.083c0.222-1.935-0.254-3.953-1.449-5.57
		c-0.077-0.005-0.154-0.009-0.229-0.012c-0.476-0.011-0.954,0.031-1.424,0.128c-0.38,0.079-0.756,0.193-1.123,0.344
		c-0.777,0.319-1.513,0.8-2.167,1.444l0,0l-0.001-0.002l-0.43,0.424l-0.753,0.743l-0.81,0.8c-0.058,0.048-0.114,0.095-0.169,0.148
		l-3.164,3.125l-0.074,0.073L-3.07,69.728L-6.283,72.9l-8.532,8.424l-0.915,0.902l-0.216,0.213
		c-0.023,0.021-0.044,0.042-0.068,0.062c-0.128,0.098-0.257,0.19-0.39,0.278c-0.978,0.585-2.181,0.524-3.104-0.156
		c-0.134-0.11-0.266-0.226-0.395-0.348c-0.008-0.007-0.013-0.015-0.02-0.022l-0.248-0.299l-0.802-0.965l-2.048-2.467l-2.889-3.478
		l-0.067-0.082l-3.481-4.19l-0.068-0.081l-2.89-3.479l-2.048-2.467l-1.061-1.278c-0.545-0.831-0.913-1.754-1.105-2.708
		c-0.013-0.069-0.027-0.138-0.038-0.207c-0.015-0.081-0.028-0.163-0.039-0.245c-0.323-2.262,0.32-4.646,1.895-6.371
		c-1.723-0.08-3.476,0.549-4.856,1.91C-41.109,57.273-41.861,59.217-41.901,61.183z"/>
	
		<linearGradient id="XMLID_12_" gradientUnits="userSpaceOnUse" x1="-149.7367" y1="-456.128" x2="-149.7367" y2="-476.9034" gradientTransform="matrix(-0.6712 -0.7413 -0.7413 0.6712 -435.1861 262.4441)">
		<stop  offset="0.3139" style="stop-color:#FFFFFF;stop-opacity:0"/>
		<stop  offset="1" style="stop-color:#272425"/>
	</linearGradient>
	<path id="XMLID_19_" class="st2" d="M9.289,62.683l0.839,1.009l0.204,0.248l0.083,0.099l0.125-0.123l0.809-0.799
		c0.058-0.048,0.116-0.096,0.17-0.15l2.536-2.504l0.628-0.62l0.074-0.073l0.47-0.464c0.763-0.595,1.608-0.995,2.484-1.205
		c0.063-0.015,0.126-0.029,0.189-0.042c0.075-0.017,0.15-0.03,0.224-0.043c0.29-0.049,0.586-0.076,0.879-0.083
		c0.222-1.935-0.254-3.953-1.449-5.57c-0.077-0.005-0.154-0.009-0.229-0.012c-0.476-0.011-0.954,0.031-1.424,0.128
		c-0.38,0.079-0.756,0.193-1.123,0.344c-0.777,0.319-1.513,0.8-2.167,1.444l0,0l-0.001-0.002l-0.43,0.424l-0.753,0.743l-0.81,0.8
		c-0.058,0.048-0.114,0.095-0.169,0.148l-3.164,3.125L7.211,59.58l-0.274,0.27l0.783,0.943L9.289,62.683z"/>
	<g id="XMLID_16_" class="st3">
		
			<linearGradient id="XMLID_14_" gradientUnits="userSpaceOnUse" x1="-149.2669" y1="-439.9666" x2="-159.9233" y2="-439.9666" gradientTransform="matrix(-0.6712 -0.7413 -0.7413 0.6712 -435.1861 262.4441)">
			<stop  offset="0.3139" style="stop-color:#FFFFFF;stop-opacity:0"/>
			<stop  offset="1" style="stop-color:#272425"/>
		</linearGradient>
		<path id="XMLID_31_" class="st4" d="M-8.581,76.95l1.569,1.89l0.838,1.01l0.295,0.359l0.001-0.002
			c0.013,0.015,0.027,0.028,0.039,0.043c0.48,0.781,0.809,1.636,0.986,2.519c0.014,0.069,0.028,0.138,0.039,0.207
			c0.014,0.082,0.027,0.163,0.038,0.245c0.05,0.345,0.073,0.695,0.078,1.042c0.024,1.934-0.639,3.867-1.972,5.329
			c1.714,0.081,3.455-0.542,4.831-1.887c0.008-0.008,0.017-0.016,0.026-0.024c1.442-1.423,2.194-3.369,2.234-5.334
			c0.01-0.519-0.028-1.039-0.118-1.553C0.232,80.38,0.128,79.969-0.01,79.57c-0.293-0.846-0.733-1.65-1.324-2.361l0,0l0.002-0.002
			l-0.389-0.468l-1.196-1.443l-0.825-0.993l-0.428-0.515l-2.206-2.657l-3.868,3.817L-8.581,76.95z"/>
	</g>
	<g id="XMLID_13_" class="st3">
		
			<linearGradient id="XMLID_15_" gradientUnits="userSpaceOnUse" x1="3973.2119" y1="-2248.469" x2="3960.7571" y2="-2248.469" gradientTransform="matrix(0.6712 0.7413 0.7413 -0.6712 -1031.3344 -4387.2979)">
			<stop  offset="0.3139" style="stop-color:#FFFFFF;stop-opacity:0"/>
			<stop  offset="0.3256" style="stop-color:#F8F8F8;stop-opacity:0.017"/>
			<stop  offset="0.4266" style="stop-color:#C1C1C1;stop-opacity:0.1642"/>
			<stop  offset="0.5281" style="stop-color:#929191;stop-opacity:0.3122"/>
			<stop  offset="0.6282" style="stop-color:#6C6A6A;stop-opacity:0.4581"/>
			<stop  offset="0.7264" style="stop-color:#4E4B4C;stop-opacity:0.6012"/>
			<stop  offset="0.8223" style="stop-color:#383536;stop-opacity:0.7409"/>
			<stop  offset="0.9147" style="stop-color:#2B2829;stop-opacity:0.8757"/>
			<stop  offset="1" style="stop-color:#272425"/>
		</linearGradient>
		<path id="XMLID_30_" class="st5" d="M-32.509,67.042l-1.569-1.89l-0.838-1.01l-0.682-0.821l-0.002,0.002
			c-0.013-0.016-0.027-0.028-0.039-0.043c-0.48-0.781-0.809-1.636-0.988-2.518c-0.013-0.069-0.027-0.138-0.038-0.207
			c-0.015-0.081-0.028-0.163-0.039-0.245c-0.049-0.346-0.073-0.695-0.078-1.043c-0.024-1.934,0.638-3.867,1.973-5.329
			c-1.714-0.08-3.455,0.542-4.831,1.887c-0.008,0.009-0.018,0.016-0.026,0.024c-1.442,1.425-2.194,3.37-2.233,5.334
			c-0.011,0.518,0.028,1.04,0.118,1.552c0.073,0.415,0.178,0.826,0.316,1.225c0.292,0.848,0.732,1.65,1.323,2.361l0.001,0.002
			l-0.002,0.002l0.389,0.468l1.583,1.906l0.825,0.993l0.426,0.515l2.207,2.656l3.868-3.817L-32.509,67.042z"/>
	</g>
	<g id="XMLID_10_">
		<path id="XMLID_40_" class="st6" d="M-41.889,60.897c1.729-1.538,3.97-2,6.003-1.426c0.073,0.021,0.147,0.042,0.219,0.065
			c0.061,0.02,0.123,0.042,0.184,0.063c0.853,0.302,1.658,0.793,2.362,1.466l1.061,1.277l7.698,9.269
			c0.018,0.023,0.034,0.048,0.054,0.072l-0.001,0.001l0.682,0.821l0.839,1.01l1.569,1.89l6.966,8.389l0.428,0.514l0.825,0.993
			l1.196,1.443l0.389,0.468l0.002-0.002v0.001c0.591,0.712,1.28,1.27,2.024,1.67c0.352,0.189,0.715,0.344,1.087,0.464
			c0.46,0.148,0.931,0.241,1.405,0.282c1.798,0.152,3.647-0.471,5.089-1.896c1.381-1.363,2.128-3.202,2.225-5.081
			c-1.73,1.538-3.969,2-6.004,1.426c-0.073-0.022-0.147-0.043-0.219-0.066c-0.062-0.02-0.123-0.041-0.184-0.063
			c-0.852-0.302-1.658-0.792-2.362-1.465l-0.674-0.815l-7.695-9.265c-0.019-0.025-0.038-0.052-0.057-0.076l0.001-0.001l-0.682-0.821
			l-0.838-1.01l-1.569-1.89l-6.968-8.389l-0.427-0.515l-0.824-0.993l-1.583-1.906l-0.389-0.468l-0.002,0.002v-0.001
			c-0.592-0.711-1.281-1.269-2.024-1.671c-0.352-0.189-0.715-0.344-1.088-0.463c-0.459-0.148-0.93-0.242-1.405-0.282
			c-1.798-0.151-3.647,0.472-5.09,1.896C-41.045,57.179-41.792,59.019-41.889,60.897z"/>
	</g>
	<path id="XMLID_9_" class="st6" d="M-20.065,59.715c1.729-1.538,3.969-2,6.004-1.426c0.073,0.021,0.146,0.042,0.219,0.066
		c0.061,0.02,0.123,0.041,0.184,0.063c0.833,0.296,1.623,0.773,2.317,1.426l0.62,0.745l0.838,1.009l1.57,1.89l5.195,6.256
		l1.327,1.598l0.428,0.515l0.824,0.993l0.899,1.083l0.684,0.823l0.389,0.468c0.215,0.258,0.445,0.495,0.683,0.713
		c0.011,0.009,0.02,0.019,0.03,0.028c0.068,0.061,0.138,0.121,0.208,0.178c0.018,0.016,0.038,0.032,0.056,0.047
		c0.067,0.054,0.132,0.107,0.199,0.157c0.024,0.018,0.048,0.037,0.073,0.053c0.064,0.048,0.129,0.094,0.195,0.139
		c0.028,0.019,0.056,0.037,0.083,0.055c0.063,0.043,0.128,0.083,0.193,0.123c0.031,0.019,0.063,0.037,0.094,0.054
		c0.063,0.038,0.126,0.074,0.19,0.109c0.008,0.004,0.014,0.008,0.022,0.012c0.03,0.017,0.061,0.031,0.09,0.046
		c0.058,0.03,0.114,0.06,0.173,0.088c0.031,0.015,0.062,0.028,0.093,0.043c0.111,0.05,0.224,0.098,0.336,0.144
		c0.045,0.018,0.09,0.036,0.136,0.053c0.053,0.019,0.106,0.037,0.159,0.055c0.033,0.01,0.067,0.023,0.099,0.034
		c0.013,0.004,0.025,0.007,0.038,0.01c0.075,0.024,0.152,0.047,0.229,0.067c0.037,0.011,0.074,0.021,0.113,0.03
		c0.075,0.02,0.151,0.037,0.227,0.053c0.039,0.008,0.078,0.018,0.118,0.026c0.075,0.014,0.151,0.026,0.226,0.038
		c0.041,0.007,0.081,0.013,0.122,0.019c0.076,0.01,0.151,0.018,0.227,0.025c0.034,0.004,0.07,0.009,0.105,0.013
		c0.006,0.001,0.011,0,0.017,0.001c0.056,0.005,0.112,0.007,0.169,0.01c0.057,0.003,0.114,0.008,0.172,0.009
		c0.006,0,0.011,0.001,0.017,0.001c0.034,0.001,0.069-0.001,0.103-0.001c0.078,0.001,0.155,0.002,0.234-0.001
		c0.038-0.001,0.078-0.004,0.116-0.007c0.079-0.004,0.157-0.008,0.236-0.013c0.037-0.004,0.073-0.008,0.111-0.013
		c0.08-0.008,0.16-0.018,0.24-0.028c0.035-0.005,0.07-0.011,0.104-0.017c0.083-0.013,0.165-0.028,0.247-0.043
		c0.012-0.003,0.023-0.004,0.033-0.007c0.028-0.006,0.058-0.013,0.086-0.02c0.062-0.013,0.123-0.027,0.184-0.042
		c0.033-0.009,0.068-0.02,0.103-0.028c0.224-0.061,0.445-0.134,0.663-0.219c0.029-0.012,0.058-0.022,0.087-0.033
		c0.008-0.003,0.014-0.007,0.022-0.01c0.069-0.028,0.138-0.06,0.206-0.091c0.03-0.013,0.061-0.028,0.09-0.041
		C9.261,77.011,9.33,76.976,9.4,76.94c0.027-0.014,0.052-0.028,0.078-0.041c0.073-0.039,0.146-0.08,0.218-0.122
		c0.023-0.013,0.043-0.027,0.065-0.039c0.075-0.046,0.15-0.093,0.224-0.141c0.016-0.011,0.031-0.021,0.046-0.032
		c0.079-0.054,0.158-0.108,0.236-0.165c0.006-0.004,0.011-0.008,0.017-0.013c0.262-0.193,0.516-0.408,0.758-0.646
		c0.002-0.002,0.004-0.003,0.005-0.006l0.423-0.417l1.748-1.726l0.912-0.899l0.471-0.466l1.187-1.172l1.289-1.272l0.446-0.439
		l0.307-0.304l0.28-0.277l0.338-0.333l0.135-0.133l0.173-0.171l0.446-0.439l0.292-0.289l0.996-0.984l0.752-0.742l0.43-0.424
		l-0.001-0.002c0.652-0.645,1.164-1.395,1.533-2.207c0.174-0.383,0.315-0.78,0.425-1.185c0.135-0.5,0.221-1.014,0.259-1.532
		c0.006-0.083,0.008-0.167,0.012-0.25c0.074-1.875-0.498-3.781-1.739-5.283c-1.249-1.497-2.932-2.306-4.649-2.411
		c1.195,1.617,1.67,3.635,1.448,5.569c-0.036,0.319-0.089,0.635-0.163,0.946c-0.019,0.08-0.038,0.16-0.061,0.239
		c-0.018,0.067-0.037,0.134-0.058,0.201c-0.277,0.928-0.727,1.806-1.345,2.575l-0.511,0.504l-0.032,0.033l-3.19,3.149
		c-0.002,0.001-0.002,0.002-0.003,0.002l-1.063,1.05l-0.074,0.073l-2.864,2.828L8.81,70.319l-0.39,0.385
		c-0.204,0.158-0.411,0.3-0.625,0.43c-0.874,0.429-1.892,0.372-2.721-0.152c-0.184-0.139-0.361-0.289-0.533-0.449l-0.332-0.4
		l-0.083-0.1l-0.205-0.246l-0.838-1.01l-1.57-1.89l-0.783-0.943l-5.741-6.912l-0.428-0.515l-0.824-0.992l-1.583-1.906l-0.388-0.468
		l-0.002,0.001l0,0c-0.592-0.711-1.279-1.269-2.024-1.671c-0.352-0.188-0.715-0.344-1.087-0.463c-0.46-0.147-0.93-0.241-1.406-0.281
		c-1.799-0.151-3.647,0.473-5.089,1.897C-19.221,55.996-19.969,57.836-20.065,59.715z"/>
	
		<linearGradient id="XMLID_17_" gradientUnits="userSpaceOnUse" x1="-150.2895" y1="-443.5975" x2="-150.2895" y2="-436.37" gradientTransform="matrix(-0.6712 -0.7413 -0.7413 0.6712 -435.1861 262.4441)">
		<stop  offset="0.3139" style="stop-color:#FFFFFF;stop-opacity:0"/>
		<stop  offset="1" style="stop-color:#272425"/>
	</linearGradient>
	<polygon id="XMLID_8_" class="st7" points="-11.8,78.318 -8.205,74.768 -4.727,78.956 -8.322,82.507 	"/>
	
		<linearGradient id="XMLID_18_" gradientUnits="userSpaceOnUse" x1="-149.5285" y1="-461.8183" x2="-149.5285" y2="-454.5907" gradientTransform="matrix(-0.6712 -0.7413 -0.7413 0.6712 -435.1861 262.4441)">
		<stop  offset="0.3139" style="stop-color:#FFFFFF;stop-opacity:0"/>
		<stop  offset="1" style="stop-color:#272425"/>
	</linearGradient>
	<polygon id="XMLID_7_" class="st8" points="0.743,65.935 4.338,62.384 7.817,66.574 4.222,70.123 	"/>
	
		<linearGradient id="XMLID_23_" gradientUnits="userSpaceOnUse" x1="-32.6152" y1="139.0461" x2="-28.9526" y2="142.7616" gradientTransform="matrix(1 0.0025 0.0025 -1 27.6914 214.1839)">
		<stop  offset="0.3139" style="stop-color:#FFFFFF;stop-opacity:0"/>
		<stop  offset="1" style="stop-color:#272425"/>
	</linearGradient>
	<polygon id="XMLID_6_" class="st9" points="-3.118,69.746 0.361,73.935 -2.049,76.342 -5.527,72.154 	"/>
	
		<linearGradient id="XMLID_24_" gradientUnits="userSpaceOnUse" x1="-39.5011" y1="144.392" x2="-35.2223" y2="139.9689" gradientTransform="matrix(1 0.0025 0.0025 -1 27.6914 214.1839)">
		<stop  offset="0.3139" style="stop-color:#FFFFFF;stop-opacity:0"/>
		<stop  offset="1" style="stop-color:#272425"/>
	</linearGradient>
	<polygon id="XMLID_5_" class="st10" points="-9.408,75.954 -5.527,72.154 -8.241,68.885 -12.205,72.587 	"/>
	
		<linearGradient id="XMLID_25_" gradientUnits="userSpaceOnUse" x1="-30.0838" y1="133.4242" x2="-32.4422" y2="135.7826" gradientTransform="matrix(1 0.0025 0.0025 -1 27.6914 214.1839)">
		<stop  offset="0.3139" style="stop-color:#FFFFFF;stop-opacity:0"/>
		<stop  offset="1" style="stop-color:#272425"/>
	</linearGradient>
	<path id="XMLID_4_" class="st11" d="M-5.929,80.144l3.881-3.802l1.406,1.854l-4.387,3.857C-5.118,80.996-5.929,80.144-5.929,80.144
		z"/>
	
		<linearGradient id="XMLID_26_" gradientUnits="userSpaceOnUse" x1="-45.9674" y1="126.8409" x2="-42.0417" y2="130.1867" gradientTransform="matrix(1 0.0025 0.0025 -1 27.6914 214.1839)">
		<stop  offset="0.3139" style="stop-color:#FFFFFF;stop-opacity:0"/>
		<stop  offset="1" style="stop-color:#272425"/>
	</linearGradient>
	<path id="XMLID_3_" class="st12" d="M-15.654,82.132l3.499,4.187c-1.957,1.858-2.103,2.084-2.77,2.351
		c-1.332,0.535-3.194-5.508-3.194-5.508S-16.805,83.441-15.654,82.132z"/>
</g>
</svg>
